<?xml version="1.0" encoding="utf-8"?>
<!-- Generator: Adobe Illustrator 20.1.0, SVG Export Plug-In . SVG Version: 6.00 Build 0)  -->
<svg version="1.1" id="Layer_1" xmlns="http://www.w3.org/2000/svg" xmlns:xlink="http://www.w3.org/1999/xlink" x="0px" y="0px"
	 viewBox="0 0 248 467" style="enable-background:new 0 0 248 467;" xml:space="preserve">
<style type="text/css">
	.st0{fill:#FFFFFF;}
	.st1{fill:#172F45;}
	.st2{font-family:'ArialMT';}
	.st3{font-size:200px;}
</style>
<path class="st0" d="M18.9,314.8c0,76.4,48.2,138.3,107.7,138.3c59.5,0,107.7-61.9,107.7-138.3c0-97.9-83.6-161.5-90.3-270.6v-4.5
	c0-12.5-7.8-22.7-17.4-22.7c-9.6,0-17.4,10.2-17.4,22.7v4.5C102.2,153.2,18.9,216.8,18.9,314.8z"/>
<path class="st1" d="M128.4,371.3c19.6-4.5,35.2-21.3,39.8-39.5c1.6-8.5,9-15,17.9-15c10,0,18.2,8.2,18.2,18.2c0,13.1-11,33-26,47.9
	c-14.7,14.5-32.3,24.8-46.7,24.8c-10,0-18.2-8.4-18.2-18.4C113.4,380.3,119.9,372.8,128.4,371.3z"/>
<text transform="matrix(1 0 0 1 55 299)" class="st1 st2 st3">A</text>
</svg>
