<?xml version="1.0" encoding="utf-8"?>
<!-- Generator: Adobe Illustrator 20.1.0, SVG Export Plug-In . SVG Version: 6.00 Build 0)  -->
<svg version="1.1" id="Layer_1" xmlns="http://www.w3.org/2000/svg" xmlns:xlink="http://www.w3.org/1999/xlink" x="0px" y="0px"
	 viewBox="0 0 256 256" style="enable-background:new 0 0 256 256;" xml:space="preserve">
<style type="text/css">
	.st0{fill:#72889C;}
	.st1{fill:none;stroke:#72889C;stroke-width:2;stroke-miterlimit:10;}
	.st2{fill:none;}
</style>
<g transform="translate(0.000000,256.000000) scale(0.100000,-0.100000)">
	<path class="st0" d="M488,1819c-3-71-25-94-30-32c-2,30-7,38-23,38s-21-8-23-37c-3-33-7-38-28-38c-23,0-24-3-24-60v-60h-53
		c-29,0-58-5-65-12s-12-36-12-64v-53l-47-3l-48-3l-3-125c-2-97-6-126-17-133c-11-6-15-28-15-86c0-74,2-81,39-138
		c66-103,65-100,37-134c-26-30-46-86-46-126c0-18-7-22-37-25c-30-2-38-7-38-23c0-20,7-20,1225-20s1225,0,1225,20c0,18-8,20-82,23
		c-46,2-83,4-83,5c0,2,27,83,60,181s57,183,54,187c-3,5-32,9-64,9h-59l-11,55c-44,214-249,361-455,327c-130-21-238-94-298-200
		l-30-54l-29,50c-125,217-414,275-609,120c-81-64-127-146-154-271c-6-27-7-28-68-25l-62,3l-3,318l-2,317h-35h-34l-3,63
		c-3,55-5,62-25,65S491,1877,488,1819z M560,1610v-90H435c-77,0-125-4-125-10c0-5-7-10-15-10c-10,0-15,11-15,35v35h53
		c29,0,58,5,65,12s12,36,12,65v53h75h75V1610z M308,1423c3-21,9-23,60-24c31-1,87-1,125,1l67,2v-138c0-135-9-169-20-76l-5,47l-177,3
		l-178,2v106v105l63-3C299,1445,305,1443,308,1423z M1287,1418c103-38,206-168,215-268l3-35l-354-3l-354-2l6,45
		c19,132,140,256,281,285C1139,1451,1223,1442,1287,1418z M2040,1424c118-38,230-177,230-285v-29h-351h-352l5,44c7,62,44,133,98,186
		C1768,1439,1902,1469,2040,1424z M490,1168c0-41,36-86,77-97c25-7,335-11,931-11c490,0,892-3,892-7s-24-78-52-165l-53-158H1284H283
		l-5,69c-6,75-41,164-97,241c-25,35-31,52-31,97v53h170C490,1190,490,1190,490,1168z"/>
	<rect x="519.5" y="1610.7" class="st1" width="11" height="5.3"/>
	<circle class="st0" cx="238.3" cy="1321.7" r="1.5"/>
	<circle class="st2" cx="-205" cy="1411.7" r="1.5"/>
	
		<ellipse transform="matrix(0.9607 -0.2775 0.2775 0.9607 -354.2582 140.0566)" class="st0" cx="317.7" cy="1321.7" rx="1.5" ry="1.5"/>
	
		<ellipse transform="matrix(0.9676 -0.2526 0.2526 0.9676 -321.1767 141.3572)" class="st0" cx="390" cy="1321.7" rx="1.5" ry="1.5"/>
	
		<ellipse transform="matrix(0.9819 -0.1896 0.1896 0.9819 -242.1257 112.1626)" class="st0" cx="465.2" cy="1321.7" rx="1.5" ry="1.5"/>
</g>
</svg>
