<?xml version="1.0" encoding="utf-8"?>
<!-- Generator: Adobe Illustrator 20.1.0, SVG Export Plug-In . SVG Version: 6.00 Build 0)  -->
<svg version="1.1" id="Capa_1" xmlns="http://www.w3.org/2000/svg" xmlns:xlink="http://www.w3.org/1999/xlink" x="0px" y="0px"
	 viewBox="0 0 80 32" style="enable-background:new 0 0 80 32;" xml:space="preserve">
<style type="text/css">
	.st0{fill:#FFFFFF;}
</style>
<path class="st0" d="M16,4C9.4,4,4,9.4,4,16s5.4,12,12,12s12-5.4,12-12S22.6,4,16,4 M16,2c7.7,0,14,6.3,14,14s-6.3,14-14,14
	S2,23.7,2,16S8.3,2,16,2L16,2z M19.5,11.1l1.4,1.4L17.4,16l3.5,3.5l-1.4,1.4L16,17.4l-3.5,3.5L11,19.5l3.5-3.5l-3.5-3.5l1.4-1.4
	l3.5,3.5L19.5,11.1z"/>
</svg>
