<?xml version="1.0" encoding="utf-8"?>
<!-- Generator: Adobe Illustrator 15.0.0, SVG Export Plug-In . SVG Version: 6.00 Build 0)  -->
<!DOCTYPE svg PUBLIC "-//W3C//DTD SVG 1.1//EN" "http://www.w3.org/Graphics/SVG/1.1/DTD/svg11.dtd">
<svg version="1.1" id="Layer_1" xmlns="http://www.w3.org/2000/svg" xmlns:xlink="http://www.w3.org/1999/xlink" x="0px" y="0px"
	 width="88.809px" height="80.896px" viewBox="0 0 88.809 80.896" enable-background="new 0 0 88.809 80.896" xml:space="preserve">
<g>
	<defs>
		<rect id="SVGID_1_" x="-28.096" y="-32.052" width="145" height="145"/>
	</defs>
	<clipPath id="SVGID_2_">
		<use xlink:href="#SVGID_1_"  overflow="visible"/>
	</clipPath>
	<path clip-path="url(#SVGID_2_)" fill="none" stroke="#72889C" stroke-miterlimit="10" d="M54.88,8.476
		C49.729,3.33,42.892,0.498,35.628,0.5c-7.281-0.002-14.13,2.845-19.278,8.015c-5.122,5.149-7.946,11.979-7.944,19.217
		c0.005,15.01,12.222,27.228,27.234,27.219c7.285,0,14.135-2.853,19.287-8.023c5.125-5.147,7.939-11.969,7.939-19.207
		C62.865,20.457,60.031,13.622,54.88,8.476z"/>
	<path clip-path="url(#SVGID_2_)" fill="none" stroke="#72889C" stroke-miterlimit="10" d="M51.326,43.335
		c-4.199,4.216-9.766,6.53-15.688,6.531c-12.213,0.009-22.146-9.921-22.144-22.134c0-5.891,2.294-11.439,6.464-15.625
		c4.189-4.207,9.757-6.524,15.671-6.525c5.911-0.002,11.466,2.298,15.658,6.492c4.187,4.182,6.493,9.747,6.5,15.648
		C57.788,33.608,55.497,39.152,51.326,43.335z"/>
	<path clip-path="url(#SVGID_2_)" fill="none" stroke="#72889C" stroke-miterlimit="10" d="M60.632,47.851
		c-1.139-1.171-2.284-2.346-3.429-3.523c-0.701,0.905-1.455,1.776-2.275,2.602c-0.838,0.841-1.725,1.612-2.647,2.33
		c1.146,1.177,2.291,2.353,3.441,3.537"/>
	
		<rect x="64.659" y="44.954" transform="matrix(0.7072 -0.7071 0.7071 0.7072 -23.4911 67.8959)" clip-path="url(#SVGID_2_)" fill="none" stroke="#72889C" stroke-miterlimit="10" width="11.12" height="34.705"/>
	
		<rect x="53.815" y="49.445" transform="matrix(0.7071 -0.7072 0.7072 0.7071 -18.9996 57.0636)" clip-path="url(#SVGID_2_)" fill="none" stroke="#72889C" stroke-miterlimit="10" width="11.121" height="4.04"/>
	<path clip-path="url(#SVGID_2_)" fill="none" stroke="#72889C" stroke-miterlimit="10" d="M88.309,72.534
		c0,4.341-3.52,7.86-7.863,7.862c-0.629-0.629-1.259-1.258-1.888-1.889c2.623-2.621,5.244-5.24,7.863-7.862
		C87.05,71.273,87.679,71.903,88.309,72.534z"/>
	<polyline clip-path="url(#SVGID_2_)" fill="none" stroke="#72889C" stroke-miterlimit="10" points="1.786,50.602 14.219,58.318 
		35.694,27.795 70.811,32.166 86.245,14.159 	"/>
	<circle clip-path="url(#SVGID_2_)" fill="none" stroke="#72889C" stroke-miterlimit="10" cx="36.228" cy="27.736" r="2.144"/>
	<circle clip-path="url(#SVGID_2_)" fill="none" stroke="#72889C" stroke-miterlimit="10" cx="14.219" cy="58.318" r="2.144"/>
	<circle clip-path="url(#SVGID_2_)" fill="none" stroke="#72889C" stroke-miterlimit="10" cx="2.644" cy="51.03" r="2.144"/>
	<circle clip-path="url(#SVGID_2_)" fill="none" stroke="#72889C" stroke-miterlimit="10" cx="70.812" cy="32.166" r="2.144"/>
	<circle clip-path="url(#SVGID_2_)" fill="none" stroke="#72889C" stroke-miterlimit="10" cx="85.816" cy="14.91" r="2.144"/>
</g>
</svg>
