<?xml version="1.0" encoding="utf-8"?>
<!-- Generator: Adobe Illustrator 20.1.0, SVG Export Plug-In . SVG Version: 6.00 Build 0)  -->
<svg version="1.1" id="Layer_1" xmlns="http://www.w3.org/2000/svg" xmlns:xlink="http://www.w3.org/1999/xlink" x="0px" y="0px"
	 viewBox="0 0 32 32" style="enable-background:new 0 0 32 32;" xml:space="preserve">
<style type="text/css">
	.st0{fill:#798692;}
</style>
<g>
	<g>
		<path class="st0" d="M1.9,16.2c-1.1,0.6-1,1.4,0.1,1.9l3.4,1.3c1.1,0.4,2.9,0.2,3.8-0.5L23.8,7.3c1-0.8,1.1-0.6,0.2,0.2L12.5,19.9
			c-0.8,0.9-0.6,2,0.6,2.4l0.4,0.2c1.1,0.4,3,1.2,4.1,1.6l3.7,1.5c1.1,0.5,2.1,0.8,2.1,0.8c0,0,0,0,0,0s0.3-1,0.6-2.1l5.7-20.9
			c0.3-1.2-0.3-1.7-1.4-1.1L1.9,16.2z"/>
	</g>
	<g>
		<path class="st0" d="M11.1,29.9c-0.1,0.2,2.3-3.4,2.3-3.4c0.7-1,0.3-2.2-0.8-2.7L10,22.7c-1.1-0.5-1.7,0.1-1.2,1.2
			C8.8,23.9,11.2,29.7,11.1,29.9z"/>
	</g>
</g>
</svg>
