<?xml version="1.0" encoding="utf-8"?>
<!-- Generator: Adobe Illustrator 20.1.0, SVG Export Plug-In . SVG Version: 6.00 Build 0)  -->
<svg version="1.1" id="Layer_1" xmlns="http://www.w3.org/2000/svg" xmlns:xlink="http://www.w3.org/1999/xlink" x="0px" y="0px"
	 viewBox="0 0 198 108" style="enable-background:new 0 0 198 108;" xml:space="preserve">
<style type="text/css">
	.st0{fill:none;stroke:#72889C;stroke-miterlimit:10;}
	.st1{fill:#FFFFFF;stroke:#72889C;stroke-miterlimit:10;}
</style>
<title>no-minimums</title>
<desc>Created with Sketch.</desc>
<g id="Investments">
	<g id="Artboard-22" transform="translate(-1958.000000, -383.000000)">
		<g id="no-minimums" transform="translate(1957.000000, 382.000000)">
			<g id="Group">
				<path id="Shape" class="st0" d="M45.3,47.6h-0.6c-5.6,0.3-10,5.2-9.7,10.8c0.2,2.7,1.4,5.2,3.4,7.1c2,1.8,4.7,2.7,7.4,2.6
					c2.7-0.2,5.2-1.4,7.1-3.4c1.9-2,2.7-4.7,2.6-7.4C55.3,51.9,50.7,47.6,45.3,47.6L45.3,47.6z"/>
				<path id="Shape_1_" class="st0" d="M154.9,61.9c2.7-0.2,5.2-1.4,7.1-3.4c1.8-2,2.7-4.7,2.6-7.4c-0.2-2.7-1.4-5.2-3.4-7.1
					c-1.9-1.7-4.3-2.6-6.8-2.6h-0.6c-5.6,0.3-10,5.2-9.7,10.8C144.4,57.9,149.3,62.2,154.9,61.9L154.9,61.9z"/>
				<path id="Shape_2_" class="st0" d="M118.4,25.4c-5.5-6.8-12.5-10.5-19.7-10.5h-1.2c-7.6,0.4-14.6,5-19.6,12.8s-7.5,18-6.8,28.7
					c0.6,10.7,4.2,20.5,10.1,27.7C87,91.3,94.5,95,102.1,94.6s14.6-5,19.6-12.8s7.5-18,6.8-28.7C127.9,42.4,124.3,32.6,118.4,25.4
					L118.4,25.4z M112.4,57.7c-0.4,0.6-1,1-1.7,1l-3.9,0.2l0,0c-0.3,0-0.5-0.2-0.5-0.5c0-0.3,0.2-0.5,0.5-0.5l3.9-0.2
					c0.4,0,0.7-0.2,0.9-0.5c0.2-0.3,0.3-0.7,0.1-1.1L108,45.8c-0.1-0.3,0-0.5,0.3-0.6c0.3-0.1,0.5,0,0.6,0.3l3.8,10.3
					C112.9,56.4,112.8,57.1,112.4,57.7L112.4,57.7z M91.1,80.3L91.1,80.3c-0.3,0-0.5-0.2-0.5-0.5l-1-17.3c0-0.3,0.2-0.5,0.5-0.5
					c0.3,0,0.5,0.2,0.5,0.5l1,17.3C91.6,80.1,91.4,80.3,91.1,80.3L91.1,80.3z M95.7,64c-0.1,0.1-0.2,0.1-0.4,0.1
					c-0.2,0-0.4-0.1-0.5-0.2l-5-4.3c-1.1,0.8-3.1,1.7-4.9,0.4c-0.5,0.1-1.4,0.3-2.4-0.2c-1.1-0.5-1.9-1.4-2.5-2.8
					c-0.8-0.4-3.6-2.3-3-5.9c0.5-2.9,2.5-3.6,3.7-3.8c-0.4-0.7-0.9-1.9-0.7-3.3c0.2-1.3,0.9-2.4,2.1-3.3c0-1.1,0.3-4.7,4.6-5.7
					c0.4-0.8,1.6-2.8,4.5-2.8c0.6-0.9,2.9-3.7,6.7-4.5c3-0.6,6.1,0.2,9.3,2.3c0.2,0.2,0.3,0.5,0.1,0.7c-0.2,0.2-0.5,0.3-0.7,0.1
					c-3-2-5.9-2.8-8.6-2.2c-4,0.8-6.2,4.3-6.2,4.3c-0.1,0.2-0.3,0.2-0.4,0.2c-3-0.1-3.9,2.3-3.9,2.4c-0.1,0.2-0.2,0.3-0.4,0.3
					c-4.5,0.9-4.1,4.8-4.1,4.9c0,0.2-0.1,0.4-0.2,0.5C81.7,42,81,43,80.9,44c-0.2,1.7,1,3.2,1,3.3c0.1,0.2,0.2,0.4,0.1,0.6
					c-0.1,0.2-0.3,0.3-0.5,0.3c-0.1,0-2.9-0.2-3.5,3.1c-0.6,3.4,2.5,4.9,2.6,5c0.1,0.1,0.2,0.1,0.2,0.3c0.5,1.3,1.2,2.1,2.1,2.4
					c1,0.4,1.9,0.1,1.9,0.1c0.2-0.1,0.4,0,0.5,0.1c1.9,1.5,4.1-0.4,4.2-0.5c0.2-0.2,0.5-0.2,0.7,0l4.9,4.3l-0.5-8.1
					c-0.1-1-0.5-2-1.1-2.7c-0.4-0.4-0.9-0.9-1.5-1.4c-1.9-1.6-4.4-3.8-4.5-7c-0.1-2.4,1.2-4.9,4-7.7c0.1-0.1,3.5-3.6,7.1-3.9
					c2.6-0.2,4.6,0.3,6.2,0.7c1.3,0.3,2.4,0.6,3.4,0.4c0.3,0,0.5,0.1,0.6,0.4c0,0.3-0.1,0.5-0.4,0.6c-1.2,0.2-2.4-0.1-3.8-0.4
					c-1.6-0.4-3.4-0.9-5.9-0.7c-3.2,0.3-6.5,3.5-6.5,3.6c-2.5,2.5-3.8,4.9-3.7,6.9c0.1,2.7,2.3,4.7,4.2,6.2c0.6,0.5,1.2,1,1.6,1.5
					c0.8,0.9,1.3,2.1,1.4,3.3l0.5,8.6C96.2,63.5,96,63.8,95.7,64L95.7,64z M110.8,79.5L110.8,79.5c-0.3,0-0.5-0.2-0.5-0.5l-0.4-7.5
					c0-0.3,0.2-0.5,0.5-0.5c0.3,0,0.5,0.2,0.5,0.5l0.4,7.5C111.3,79.3,111.1,79.5,110.8,79.5L110.8,79.5z M109.8,70.4l-0.3,0.1
					c-1.1,0.4-2.2,0.6-3.3,0.6c-4.6,0-8.1-3.5-8.3-3.6c-0.2-0.2-0.2-0.5,0-0.7c0.2-0.2,0.5-0.2,0.7,0c0,0,4.9,4.9,10.5,2.8l0.3-0.1
					c5.5-2.1,7-2.6,5.6-24.2c0-0.3,0.2-0.5,0.5-0.5s0.5,0.2,0.5,0.5C117.4,66.7,116,68,109.8,70.4L109.8,70.4z M124.4,53.2
					c-0.1,0.9-0.6,1.7-1.5,2.5c-0.1,0.7-0.3,2.6-1.7,3.7c-0.6,0.5-1.4,0.8-2.3,0.8c-0.4,0-0.8,0-1.2-0.1c-0.3-0.1-0.4-0.3-0.4-0.6
					c0.1-0.3,0.3-0.4,0.6-0.4c1.1,0.2,2,0.1,2.6-0.4c1.3-1,1.3-3.2,1.3-3.2c0-0.2,0.1-0.3,0.2-0.4c0.8-0.6,1.2-1.2,1.3-1.9
					c0.1-0.9-0.4-1.6-0.4-1.6l-5.7-9.6c-0.1-0.2-0.1-0.5,0.2-0.7c0.2-0.1,0.5-0.1,0.7,0.2l5.7,9.6C123.8,51,124.6,51.9,124.4,53.2
					L124.4,53.2z"/>
				<path id="Shape_3_" class="st0" d="M192.6,5.3c-0.1-0.9-0.5-1.8-1.2-2.4C190.8,2.3,190,2,189.1,2h-0.2L5.3,12.5
					c-1.9,0.1-3.4,1.8-3.3,3.7l5,88c0.1,1.9,1.8,3.4,3.7,3.3L194.3,97c1.9-0.1,3.4-1.8,3.3-3.7L192.6,5.3L192.6,5.3z M180.5,9.3
					l2-1.9c0,0,0.1-0.1,0.2-0.1h0.3c0.2,0,0.3,0.1,0.3,0.2l0.6,10c0,0.1,0,0.1-0.1,0.2c0,0-0.1,0.1-0.2,0.1h-0.3l0,0
					c-0.1,0-0.2-0.1-0.2-0.2l-0.5-9.1l-1.4,1.3c0,0-0.1,0.1-0.2,0.1s-0.1,0-0.2-0.1l-0.2-0.2C180.4,9.5,180.4,9.4,180.5,9.3
					L180.5,9.3z M13.1,27.6c0,0-0.1,0.1-0.2,0.1h-0.3l0,0c-0.1,0-0.2-0.1-0.2-0.2l-0.5-9.1l-1.4,1.3c0,0-0.1,0.1-0.2,0.1
					c-0.1,0-0.1,0-0.2-0.1l-0.2-0.2c-0.1-0.1-0.1-0.3,0-0.3l2-1.9c0,0,0.1-0.1,0.2-0.1h0.3c0.1,0,0.1,0,0.2,0.1
					c0.1,0.1,0.1,0.1,0.1,0.2l0.6,10C13.1,27.4,13.1,27.5,13.1,27.6L13.1,27.6z M17.9,102.1h-0.3l0,0c-0.1,0-0.1,0-0.2-0.1
					c0,0-0.1-0.1-0.1-0.2l-0.5-9.1L15.4,94c0,0-0.1,0.1-0.2,0.1c-0.1,0-0.1,0-0.2-0.1l-0.2-0.2c-0.1-0.1-0.1-0.3,0-0.3l2-1.9
					c0,0,0.1-0.1,0.2-0.1h0.3c0.1,0,0.1,0,0.2,0.1c0,0,0.1,0.1,0.1,0.2l0.6,10C18.2,101.9,18.1,102,17.9,102.1L17.9,102.1z
					 M77.3,92.5l-45.8,2.6h-0.2c-1.6,0-3-1-3.4-2.6c-0.5-1.8-1.5-3.4-3-4.7c-1.4-1.3-3.1-2.1-5-2.4c-1.6-0.3-2.8-1.6-2.9-3.3
					l-2.6-45.3c-0.1-1.7,1-3.2,2.5-3.6c1.8-0.5,3.4-1.5,4.7-3c1.3-1.4,2.1-3.1,2.4-5c0.3-1.6,1.6-2.8,3.3-2.9l45.8-2.6
					c0.3,0,0.5,0.2,0.5,0.5c0,0.3-0.2,0.5-0.5,0.5l-45.8,2.6c-1.2,0.1-2.2,0.9-2.4,2.1c-0.3,2-1.3,3.9-2.6,5.5
					c-1.3,1.6-3.2,2.7-5.1,3.2c-1.1,0.3-1.9,1.4-1.8,2.6L18,82c0.1,1.2,0.9,2.2,2.1,2.4c2,0.3,3.9,1.3,5.5,2.6
					c1.6,1.4,2.7,3.2,3.2,5.1c0.3,1.1,1.4,1.9,2.6,1.8l45.8-2.6c0.3,0,0.5,0.2,0.5,0.5C77.8,92.2,77.5,92.5,77.3,92.5L77.3,92.5z
					 M31.1,38L31.1,38c-0.3,0-0.5-0.2-0.5-0.5s0.2-0.5,0.5-0.5l26-1.5c0.3,0,0.5,0.2,0.5,0.5s-0.2,0.5-0.5,0.5L31.1,38L31.1,38z
					 M53.7,65.4c-2,2.2-4.8,3.6-7.8,3.7h-0.6c-5.9,0-10.9-4.6-11.2-10.6c-0.4-6.2,4.4-11.5,10.6-11.9c6.2-0.4,11.5,4.4,11.9,10.6
					C56.7,60.2,55.7,63.1,53.7,65.4L53.7,65.4z M33.5,79.3l26-1.5c0.3,0,0.5,0.2,0.5,0.5c0,0.3-0.2,0.5-0.5,0.5l-26,1.5l0,0
					c-0.3,0-0.5-0.2-0.5-0.5C33,79.5,33.2,79.3,33.5,79.3L33.5,79.3z M102.1,95.6h-1.3c-7.5,0-14.7-3.8-20.5-10.9
					c-6-7.4-9.7-17.4-10.3-28.3s1.9-21.3,7-29.3c5.2-8.1,12.4-12.8,20.4-13.2c7.9-0.5,15.7,3.4,21.7,10.8s9.7,17.4,10.3,28.3
					c0.6,10.9-1.9,21.3-7,29.3C117.3,90.4,110.1,95.1,102.1,95.6L102.1,95.6z M182.7,76.2c-1.8,0.5-3.4,1.5-4.7,3s-2.1,3.1-2.4,5
					c-0.3,1.6-1.6,2.8-3.3,2.9l-45.8,2.6l0,0c-0.3,0-0.5-0.2-0.5-0.5c0-0.3,0.2-0.5,0.5-0.5l45.8-2.6c1.2-0.1,2.2-0.9,2.4-2.1
					c0.3-2,1.3-3.9,2.6-5.5c1.4-1.6,3.2-2.7,5.1-3.2c1.1-0.3,1.9-1.4,1.8-2.6l-2.6-45.3c-0.1-1.2-0.9-2.2-2.1-2.4
					c-2-0.3-3.9-1.3-5.5-2.6c-1.5-1.4-2.7-3.2-3.2-5.1c-0.3-1.1-1.4-1.9-2.6-1.8L122.4,18c-0.3,0-0.5-0.2-0.5-0.5s0.2-0.5,0.5-0.5
					l45.8-2.6c1.7-0.1,3.2,1,3.6,2.5c0.5,1.8,1.5,3.4,3,4.7c1.5,1.3,3.1,2.1,5,2.4c1.6,0.3,2.8,1.6,2.9,3.3l2.6,45.3
					C185.4,74.2,184.3,75.7,182.7,76.2L182.7,76.2z M168.5,71.6c0.3,0,0.5,0.2,0.5,0.5c0,0.3-0.2,0.5-0.5,0.5l-26,1.5l0,0
					c-0.3,0-0.5-0.2-0.5-0.5c0-0.3,0.2-0.5,0.5-0.5L168.5,71.6L168.5,71.6z M153.7,40.4c6.2-0.4,11.5,4.4,11.9,10.6
					c0.2,3-0.8,5.9-2.8,8.1c-2,2.2-4.8,3.6-7.8,3.7h-0.7c-2.8,0-5.4-1-7.5-2.9c-2.2-2-3.6-4.8-3.7-7.8
					C142.7,46.1,147.5,40.8,153.7,40.4L153.7,40.4z M166.2,30.3l-26,1.5l0,0c-0.3,0-0.5-0.2-0.5-0.5c0-0.3,0.2-0.5,0.5-0.5l26-1.5
					c0.3,0,0.5,0.2,0.5,0.5C166.7,30,166.4,30.3,166.2,30.3L166.2,30.3z M188.1,92.2c0,0-0.1,0.1-0.2,0.1h-0.3l0,0
					c-0.1,0-0.2-0.1-0.2-0.2l-0.5-9.1l-1.4,1.3c0,0-0.1,0.1-0.2,0.1c-0.1,0-0.1,0-0.2-0.1l-0.2-0.2c-0.1-0.1-0.1-0.3,0-0.3l2-1.9
					c0,0,0.1-0.1,0.2-0.1h0.3c0.2,0,0.3,0.1,0.3,0.2l0.6,10C188.2,92.1,188.2,92.1,188.1,92.2L188.1,92.2z"/>
				<path id="Shape_4_" class="st1" d="M146.8,60.1c2.1,1.9,4.7,2.9,7.5,2.9h0.7c3-0.2,5.8-1.5,7.8-3.7s3-5.1,2.8-8.1
					c-0.4-6.2-5.7-11-11.9-10.6c-6.2,0.4-11,5.7-10.6,11.9C143.3,55.3,144.6,58.1,146.8,60.1L146.8,60.1z M153.7,41.4h0.6
					c2.5,0,4.9,0.9,6.8,2.6c2,1.8,3.3,4.3,3.4,7.1c0.2,2.7-0.8,5.4-2.6,7.4c-1.8,2-4.3,3.3-7.1,3.4c-5.7,0.3-10.5-4-10.8-9.7
					C143.8,46.6,148.1,41.8,153.7,41.4L153.7,41.4z"/>
				<path id="Shape_5_" class="st1" d="M166.1,29.3l-26,1.5c-0.3,0-0.5,0.3-0.5,0.5c0,0.3,0.2,0.5,0.5,0.5l0,0l26-1.5
					c0.3,0,0.5-0.3,0.5-0.5C166.6,29.5,166.4,29.3,166.1,29.3L166.1,29.3z"/>
				<path id="Shape_6_" class="st1" d="M142,73.6c0,0.3,0.2,0.5,0.5,0.5l0,0l26-1.5c0.3,0,0.5-0.3,0.5-0.5c0-0.3-0.3-0.5-0.5-0.5
					l-26,1.5C142.2,73.1,142,73.3,142,73.6L142,73.6z"/>
				<path id="Shape_7_" class="st1" d="M182.7,27.3c-0.1-1.7-1.3-3-2.9-3.3c-1.9-0.3-3.6-1.1-5-2.4c-1.4-1.3-2.4-2.9-3-4.7
					c-0.5-1.6-1.9-2.6-3.6-2.5L122.4,17c-0.3,0-0.5,0.3-0.5,0.5c0,0.3,0.3,0.5,0.5,0.5l45.8-2.6c1.2-0.1,2.3,0.7,2.6,1.8
					c0.6,2,1.7,3.8,3.2,5.1c1.6,1.4,3.4,2.3,5.5,2.6c1.2,0.2,2,1.2,2.1,2.4l2.6,45.3c0.1,1.2-0.7,2.3-1.8,2.6
					c-2,0.6-3.8,1.7-5.1,3.2c-1.4,1.6-2.3,3.4-2.6,5.5c-0.2,1.2-1.2,2-2.4,2.1l-45.8,2.6c-0.3,0-0.5,0.3-0.5,0.5
					c0,0.3,0.2,0.5,0.5,0.5l0,0l45.8-2.6c1.7-0.1,3-1.3,3.3-2.9c0.3-1.9,1.1-3.6,2.4-5s2.9-2.4,4.7-3c1.6-0.5,2.6-2,2.5-3.6
					L182.7,27.3L182.7,27.3z"/>
				<path id="Shape_8_" class="st1" d="M94.3,51.3c-0.4-0.5-1-1-1.6-1.5c-1.8-1.6-4.1-3.5-4.2-6.2c-0.1-2.1,1.2-4.4,3.7-6.9
					c0,0,3.3-3.3,6.5-3.6c2.5-0.2,4.3,0.3,5.9,0.7c1.4,0.4,2.6,0.7,3.8,0.4c0.3,0,0.5-0.3,0.4-0.6c0-0.3-0.3-0.5-0.6-0.4
					c-1,0.2-2.1-0.1-3.4-0.4c-1.6-0.4-3.6-0.9-6.2-0.7c-3.6,0.3-7,3.7-7.1,3.9c-2.8,2.8-4.1,5.3-4,7.7c0.1,3.1,2.6,5.3,4.5,7
					c0.6,0.5,1.1,1,1.5,1.4c0.7,0.7,1.1,1.7,1.1,2.7l0.5,8.1l-4.9-4.3c-0.2-0.2-0.5-0.2-0.7,0c-0.1,0.1-2.3,2.1-4.2,0.5
					C85.2,59,85,59,84.8,59c0,0-0.9,0.4-1.9-0.1c-0.9-0.4-1.6-1.2-2.1-2.4c0-0.1-0.1-0.2-0.2-0.3c-0.1-0.1-3.2-1.6-2.6-5
					c0.6-3.3,3.4-3.1,3.5-3.1c0.2,0,0.4-0.1,0.5-0.3s0.1-0.4-0.1-0.6c0,0-1.2-1.5-1-3.3c0.1-1.1,0.8-2,1.9-2.8
					c0.1-0.1,0.2-0.3,0.2-0.5c0-0.2-0.4-4,4.1-4.9c0.2,0,0.3-0.2,0.4-0.3c0-0.1,0.9-2.6,3.9-2.4c0.2,0,0.3-0.1,0.4-0.2
					c0,0,2.2-3.5,6.2-4.3c2.7-0.6,5.6,0.2,8.6,2.2c0.2,0.2,0.5,0.1,0.7-0.1c0.2-0.2,0.1-0.5-0.1-0.7c-3.2-2.2-6.4-3-9.3-2.3
					c-3.8,0.8-6.1,3.7-6.7,4.5c-2.9,0-4.1,2.1-4.5,2.8c-4.3,1-4.6,4.6-4.6,5.7c-1.2,0.9-2,2.1-2.1,3.3c-0.2,1.3,0.3,2.5,0.7,3.3
					c-1.2,0.2-3.1,1-3.7,3.8c-0.6,3.6,2.2,5.5,3,5.9c0.6,1.4,1.5,2.4,2.5,2.8c1,0.4,2,0.3,2.4,0.2c1.8,1.3,3.8,0.4,4.9-0.4l5,4.3
					c0.1,0.1,0.3,0.2,0.5,0.2c0.1,0,0.2,0,0.4-0.1c0.3-0.1,0.5-0.4,0.4-0.8l-0.5-8.6C95.6,53.4,95.1,52.2,94.3,51.3L94.3,51.3z"/>
				<path id="Shape_9_" class="st1" d="M118.1,41.4c-0.1-0.2-0.4-0.3-0.7-0.2c-0.2,0.1-0.3,0.4-0.2,0.7l5.7,9.6c0,0,0.5,0.7,0.4,1.6
					c-0.1,0.7-0.5,1.3-1.3,1.9c-0.1,0.1-0.2,0.2-0.2,0.4c0,0,0,2.2-1.3,3.2c-0.7,0.5-1.5,0.7-2.6,0.4c-0.3-0.1-0.5,0.1-0.6,0.4
					c-0.1,0.3,0.1,0.5,0.4,0.6c0.4,0.1,0.8,0.1,1.2,0.1c0.9,0,1.7-0.3,2.3-0.8c1.4-1.1,1.6-3,1.7-3.7c0.9-0.7,1.4-1.6,1.5-2.5
					c0.2-1.3-0.6-2.3-0.6-2.3L118.1,41.4L118.1,41.4z"/>
				<path id="Shape_10_" class="st1" d="M115.5,44.7c-0.3,0-0.5,0.3-0.5,0.5c1.4,21.5-0.1,22.1-5.6,24.2l-0.3,0.1
					c-5.6,2.1-10.4-2.8-10.5-2.8c-0.2-0.2-0.5-0.2-0.7,0c-0.2,0.2-0.2,0.5,0,0.7c0.2,0.2,3.7,3.6,8.3,3.6c1,0,2.1-0.2,3.3-0.6
					l0.3-0.1c6.2-2.3,7.6-3.7,6.2-25.2C116,44.9,115.8,44.7,115.5,44.7L115.5,44.7z"/>
				<path id="Shape_11_" class="st1" d="M108.3,45.2c-0.3,0.1-0.4,0.4-0.3,0.6l3.8,10.3c0.1,0.4,0.1,0.8-0.1,1.1
					c-0.2,0.3-0.6,0.5-0.9,0.5l-3.9,0.2c-0.3,0-0.5,0.3-0.5,0.5c0,0.3,0.2,0.5,0.5,0.5l0,0l3.9-0.2c0.7,0,1.3-0.4,1.7-1
					c0.4-0.6,0.5-1.3,0.2-2l-3.8-10.3C108.8,45.2,108.5,45.1,108.3,45.2L108.3,45.2z"/>
				<path id="Shape_12_" class="st1" d="M90,62c-0.3,0-0.5,0.3-0.5,0.5l1,17.3c0,0.3,0.2,0.5,0.5,0.5l0,0c0.3,0,0.5-0.3,0.5-0.5
					l-1-17.3C90.5,62.2,90.3,62,90,62L90,62z"/>
				<path id="Shape_13_" class="st1" d="M110.3,71c-0.3,0-0.5,0.3-0.5,0.5l0.4,7.5c0,0.3,0.2,0.5,0.5,0.5l0,0c0.3,0,0.5-0.3,0.5-0.5
					l-0.4-7.5C110.9,71.2,110.6,71,110.3,71L110.3,71z"/>
				<path id="Shape_14_" class="st1" d="M193.6,5.2c-0.1-1.2-0.6-2.3-1.5-3.1c-0.9-0.8-2.1-1.2-3.3-1.1L5.2,11.5
					c-2.5,0.1-4.4,2.3-4.2,4.7l5,88c0.1,2.4,2.1,4.2,4.5,4.2h0.3L194.4,98c1.2-0.1,2.3-0.6,3.1-1.5s1.2-2.1,1.1-3.3L193.6,5.2
					L193.6,5.2z M194.3,97L10.7,107.5c-1.9,0.1-3.6-1.4-3.7-3.3l-5-88c-0.1-1.9,1.4-3.6,3.3-3.7L188.9,2h0.2c0.9,0,1.7,0.3,2.3,0.9
					c0.7,0.6,1.1,1.5,1.2,2.4l5,88C197.7,95.2,196.3,96.9,194.3,97L194.3,97z"/>
				<path id="Shape_15_" class="st1" d="M180.7,9.9c0,0.1,0.1,0.1,0.2,0.1c0.1,0,0.1,0,0.2-0.1l1.4-1.3l0.5,9.1
					c0,0.1,0.1,0.2,0.2,0.2l0,0h0.3c0.1,0,0.1,0,0.2-0.1c0,0,0.1-0.1,0.1-0.2l-0.6-10c0-0.1-0.1-0.2-0.3-0.2h-0.3
					c-0.1,0-0.1,0-0.2,0.1l-2,1.9c-0.1,0.1-0.1,0.2,0,0.3L180.7,9.9L180.7,9.9z"/>
				<path id="Shape_16_" class="st1" d="M12.5,17.2c0,0-0.1-0.1-0.2-0.1H12c-0.1,0-0.1,0-0.2,0.1l-2,1.9c-0.1,0.1-0.1,0.2,0,0.3
					l0.2,0.2c0,0.1,0.1,0.1,0.2,0.1c0.1,0,0.1,0,0.2-0.1l1.4-1.3l0.5,9.1c0,0.1,0.1,0.2,0.2,0.2l0,0h0.3c0.1,0,0.1,0,0.2-0.1
					c0,0,0.1-0.1,0.1-0.2L12.5,17.2C12.6,17.3,12.5,17.2,12.5,17.2L12.5,17.2z"/>
				<path id="Shape_17_" class="st1" d="M187.3,81.7H187c-0.1,0-0.1,0-0.2,0.1l-2,1.9c-0.1,0.1-0.1,0.2,0,0.3l0.2,0.2
					c0,0.1,0.1,0.1,0.2,0.1c0.1,0,0.1,0,0.2-0.1l1.4-1.3l0.5,9.1c0,0.1,0.1,0.2,0.2,0.2l0,0h0.3c0.1,0,0.1,0,0.2-0.1
					c0,0,0.1-0.1,0.1-0.2l-0.6-10C187.6,81.8,187.5,81.7,187.3,81.7L187.3,81.7z"/>
				<path id="Shape_18_" class="st1" d="M17.5,91.6c0,0-0.1-0.1-0.2-0.1H17c-0.1,0-0.1,0-0.2,0.1l-2,1.9c-0.1,0.1-0.1,0.2,0,0.3
					L15,94c0,0.1,0.1,0.1,0.2,0.1c0.1,0,0.1,0,0.2-0.1l1.4-1.3l0.5,9.1c0,0.1,0,0.1,0.1,0.2c0,0,0.1,0.1,0.2,0.1l0,0h0.3
					c0.1,0,0.2-0.1,0.2-0.3l-0.6-10C17.6,91.7,17.6,91.6,17.5,91.6L17.5,91.6z"/>
				<path id="Shape_19_" class="st1" d="M129.5,53c-0.6-10.9-4.3-20.9-10.3-28.3c-6.1-7.4-13.8-11.3-21.7-10.8
					c-8,0.5-15.2,5.1-20.4,13.2c-5.1,8-7.6,18.4-7,29.3s4.3,20.9,10.3,28.3c5.7,7,13,10.9,20.5,10.9h1.3c8-0.5,15.2-5.1,20.4-13.2
					C127.6,74.3,130.1,63.9,129.5,53L129.5,53z M121.7,81.8c-5,7.8-11.9,12.3-19.6,12.8C94.5,95,87,91.3,81.2,84.1
					c-5.9-7.2-9.5-17.1-10.1-27.7C70.5,45.7,73,35.5,78,27.7s11.9-12.3,19.6-12.8h1.2c7.2,0,14.2,3.7,19.7,10.5
					c5.9,7.2,9.5,17.1,10.1,27.7C129.1,63.8,126.7,74,121.7,81.8L121.7,81.8z"/>
				<path id="Shape_20_" class="st1" d="M44.7,46.6c-6.2,0.4-11,5.7-10.6,11.9c0.3,6,5.3,10.6,11.2,10.6h0.6c3-0.2,5.8-1.5,7.8-3.7
					c2-2.2,3-5.1,2.8-8.1C56.2,51,50.9,46.3,44.7,46.6L44.7,46.6z M53,64.7c-1.8,2-4.3,3.3-7.1,3.4c-2.7,0.2-5.4-0.8-7.4-2.6
					c-2-1.8-3.3-4.3-3.4-7.1c-0.3-5.6,4-10.5,9.7-10.8h0.6c5.4,0,9.9,4.2,10.2,9.7C55.7,60,54.8,62.7,53,64.7L53,64.7z"/>
				<path id="Shape_21_" class="st1" d="M57.6,36c0-0.3-0.3-0.5-0.5-0.5l-26,1.5c-0.3,0-0.5,0.3-0.5,0.5c0,0.3,0.2,0.5,0.5,0.5l0,0
					l26-1.5C57.4,36.5,57.7,36.2,57.6,36L57.6,36z"/>
				<path id="Shape_22_" class="st1" d="M33.5,80.3L33.5,80.3l26.1-1.5c0.3,0,0.5-0.3,0.5-0.5c0-0.3-0.3-0.5-0.5-0.5l-26,1.5
					c-0.3,0-0.5,0.3-0.5,0.5C33,80.1,33.2,80.3,33.5,80.3L33.5,80.3z"/>
				<path id="Shape_23_" class="st1" d="M77.2,91.5l-45.8,2.6c-1.2,0.1-2.3-0.7-2.6-1.8c-0.6-2-1.7-3.8-3.2-5.1
					c-1.6-1.4-3.4-2.3-5.5-2.6c-1.2-0.2-2-1.2-2.1-2.4l-2.6-45.3c-0.1-1.2,0.7-2.3,1.8-2.6c2-0.6,3.8-1.7,5.1-3.2
					c1.3-1.5,2.3-3.4,2.6-5.5c0.2-1.2,1.2-2,2.4-2.1l45.8-2.6c0.3,0,0.5-0.3,0.5-0.5c0-0.3-0.3-0.5-0.5-0.5l-45.8,2.6
					c-1.7,0.1-3,1.3-3.3,2.9c-0.3,1.9-1.1,3.6-2.4,5c-1.3,1.4-2.9,2.4-4.7,3c-1.6,0.5-2.6,2-2.5,3.6L17,82.3c0.1,1.7,1.3,3,2.9,3.3
					c1.9,0.3,3.6,1.1,5,2.4s2.4,2.9,3,4.7c0.4,1.5,1.8,2.6,3.4,2.6h0.2l45.8-2.6c0.3,0,0.5-0.3,0.5-0.5
					C77.7,91.7,77.5,91.5,77.2,91.5L77.2,91.5z"/>
			</g>
		</g>
	</g>
</g>
</svg>
