<?xml version="1.0" encoding="utf-8"?>
<!-- Generator: Adobe Illustrator 20.1.0, SVG Export Plug-In . SVG Version: 6.00 Build 0)  -->
<svg version="1.1" id="Layer_1" xmlns="http://www.w3.org/2000/svg" xmlns:xlink="http://www.w3.org/1999/xlink" x="0px" y="0px"
	 viewBox="0 0 256 256" style="enable-background:new 0 0 256 256;" xml:space="preserve">
<style type="text/css">
	.st0{fill:#72889C;}
</style>
<path class="st0" d="M34.3,1.6C27.6,4.9,28-2.7,28,128c0,131.1-0.4,123.2,6.5,126.4c3,1.5,12.9,1.6,94.9,1.4l91.6-0.3l3.2-3.3
	l3.3-3.2l0.3-83.2l0.2-83.3l-41.2-41.2L145.5,0h-54C44.5,0,37.1,0.2,34.3,1.6z M140,45.1v37.1l2.9,2.9l2.9,2.9h37.1H220v78.8
	c0,60-0.3,79.1-1.2,80c-1.7,1.7-179.9,1.7-181.6,0s-1.7-235.9,0-237.6C38.1,8.3,51,8,89.2,8H140V45.1z M182.8,83.8
	c-31.6,0.2-35.3,0.1-37-1.4c-1.7-1.6-1.8-4-1.8-37.3V9.5l37,37l37,37L182.8,83.8z"/>
<path class="st0" d="M156.5,124l-31,31l-16-16l-16-16l-14.8,14.7L64,152.5v-29.3C64,94.7,64,94,62,94s-2,0.7-2,49v49h33
	c32.3,0,33,0,33-2s-0.7-2-31-2H64v-14.8v-14.7l14.8-14.8L93.5,129l16,16l16,16l32.7-32.7c25.2-25.2,32.5-33,31.6-34
	c-0.6-0.7-1.3-1.3-1.7-1.3C187.8,93,173.5,106.9,156.5,124z"/>
<g id="layer1" transform="translate(0,-1020.3622)">
	<g id="text4981" transform="scale(1.1477838,0.87124422)">
	</g>
	<path id="path4226" class="st0" d="M167.2,1160.3c-0.9,0-1.6,0.7-1.6,1.6v12.3c-2.8,0.7-5.5,1.8-8,3.3l-8.7-8.7
		c-0.6-0.6-1.6-0.6-2.2,0l-9,9c-0.6,0.6-0.6,1.6,0,2.2l8.7,8.7c-1.5,2.5-2.6,5.2-3.3,8h-12.4c-0.9,0-1.6,0.7-1.6,1.6v12.7
		c0,0.9,0.7,1.6,1.6,1.6H143c0.7,2.8,1.8,5.5,3.3,8l-8.7,8.7c-0.6,0.6-0.6,1.6,0,2.2l9,9c0.6,0.6,1.6,0.6,2.2,0l8.7-8.7
		c2.5,1.5,5.2,2.6,8,3.3v12.3c0,0.9,0.7,1.6,1.6,1.6h12.7c0.9,0,1.6-0.7,1.6-1.6v-12.3c2.8-0.7,5.5-1.8,8-3.3l8.7,8.7
		c0.6,0.6,1.6,0.6,2.2,0l9-9c0.6-0.6,0.6-1.6,0-2.2l-8.7-8.7c1.5-2.5,2.6-5.2,3.3-8h12.4c0.9,0,1.6-0.7,1.6-1.6v-12.7
		c0-0.9-0.7-1.6-1.6-1.6H204c-0.7-2.8-1.8-5.5-3.3-8l8.7-8.7c0.6-0.6,0.6-1.6,0-2.2c0,0,0,0,0,0l-9-9c-0.6-0.6-1.6-0.6-2.2,0
		l-8.7,8.7c-2.5-1.5-5.2-2.6-8-3.3v-12.3c0-0.9-0.7-1.6-1.6-1.6L167.2,1160.3L167.2,1160.3z M168.7,1163.5h9.5v11.8
		c0,0.7,0.5,1.4,1.3,1.6c3.4,0.7,6.6,2.1,9.5,3.9c0.6,0.4,1.5,0.3,2-0.2l8.4-8.3l6.7,6.7l-8.3,8.3c-0.5,0.5-0.6,1.4-0.2,2
		c1.9,2.9,3.2,6.1,3.9,9.5c0.2,0.7,0.8,1.2,1.6,1.2h11.8v9.5H203c-0.7,0-1.4,0.5-1.6,1.2c-0.7,3.4-2.1,6.5-3.9,9.4
		c-0.4,0.6-0.3,1.5,0.2,2l8.4,8.3l-6.7,6.7l-8.3-8.3c-0.5-0.5-1.3-0.6-2-0.2c-2.9,1.9-6.1,3.2-9.5,3.9c-0.7,0.2-1.3,0.8-1.3,1.5
		v11.8h-9.5V1234c0-0.7-0.5-1.4-1.3-1.5c-3.4-0.7-6.6-2.1-9.5-3.9c-0.6-0.4-1.5-0.3-2,0.2l-8.4,8.3l-6.7-6.7l8.3-8.3
		c0.5-0.5,0.6-1.4,0.2-2c-1.9-2.9-3.2-6.1-3.9-9.5c-0.2-0.7-0.8-1.3-1.6-1.3h-11.8v-9.5H144c0.7,0,1.4-0.5,1.6-1.2
		c0.7-3.4,2.1-6.6,3.9-9.4c0.4-0.6,0.3-1.5-0.2-2l-8.4-8.3l6.7-6.7l8.3,8.3c0.5,0.5,1.3,0.6,2,0.2c2.9-1.9,6.1-3.2,9.5-3.9
		c0.7-0.2,1.3-0.8,1.3-1.5V1163.5z M173.5,1185.7c-10.5,0-19,8.5-19,19c0,10.5,8.5,19,19,19s19-8.5,19-19
		C192.6,1194.2,184,1185.7,173.5,1185.7z M173.5,1188.8c8.8,0,15.9,7.1,15.9,15.8c0,8.8-7.1,15.8-15.9,15.8s-15.9-7.1-15.9-15.8
		C157.6,1195.9,164.7,1188.8,173.5,1188.8z M172.6,1192v2.9c-0.8,0.1-1.5,0.3-2.2,0.6s-1.2,0.6-1.7,1.1c-0.4,0.4-0.8,1-1,1.6
		c-0.2,0.6-0.4,1.3-0.4,2c0,0.8,0.1,1.5,0.4,2.1c0.3,0.6,0.7,1.1,1.2,1.6c0.5,0.5,1.2,0.9,1.9,1.2c0.8,0.3,1.6,0.6,2.5,0.9
		c0.7,0.2,1.3,0.5,1.8,0.7c0.5,0.2,0.9,0.5,1.2,0.8c0.3,0.3,0.5,0.6,0.7,0.9c0.1,0.3,0.2,0.7,0.2,1.1c0,0.5-0.1,0.9-0.3,1.3
		c-0.2,0.4-0.4,0.7-0.8,1c-0.3,0.3-0.7,0.5-1.2,0.6c-0.5,0.1-1,0.2-1.7,0.2c-0.4,0-0.9-0.1-1.3-0.2c-0.4-0.1-0.9-0.3-1.2-0.6
		c-0.4-0.3-0.7-0.7-0.9-1.2c-0.2-0.5-0.3-1.1-0.3-1.9h-3.1c0,1,0.2,1.9,0.5,2.6c0.3,0.7,0.7,1.3,1.3,1.8c0.5,0.5,1.2,0.8,1.9,1.1
		c0.7,0.2,1.4,0.4,2.1,0.5v2.6h2.4v-2.6c0.9-0.1,1.7-0.3,2.4-0.5c0.7-0.3,1.3-0.6,1.8-1.1c0.5-0.4,0.9-1,1.1-1.6
		c0.3-0.6,0.4-1.3,0.4-2.1c0-0.8-0.1-1.5-0.4-2.1c-0.3-0.6-0.6-1.1-1.1-1.6c-0.5-0.5-1.1-0.8-1.9-1.2c-0.7-0.3-1.6-0.7-2.6-0.9
		c-0.8-0.2-1.4-0.5-1.9-0.7c-0.5-0.3-0.9-0.5-1.2-0.8c-0.3-0.3-0.5-0.6-0.7-0.9c-0.1-0.3-0.2-0.7-0.2-1.2c0-0.5,0.1-0.9,0.2-1.3
		c0.1-0.4,0.3-0.7,0.6-1c0.3-0.3,0.6-0.5,1-0.6c0.4-0.2,0.9-0.2,1.5-0.2c0.5,0,1,0.1,1.4,0.3c0.4,0.2,0.8,0.5,1.1,0.9
		c0.3,0.4,0.5,0.8,0.6,1.3c0.2,0.5,0.2,1,0.2,1.6h3.1c0-1.8-0.5-3.2-1.4-4.3c-0.9-1-2.2-1.7-3.8-1.9v-2.9H172.6z"/>
	<g id="text4377" transform="scale(1.1477838,0.87124422)">
	</g>
</g>
</svg>
