<?xml version="1.0" encoding="utf-8"?>
<!-- Generator: Adobe Illustrator 20.1.0, SVG Export Plug-In . SVG Version: 6.00 Build 0)  -->
<svg version="1.1" id="Layer_1" xmlns="http://www.w3.org/2000/svg" xmlns:xlink="http://www.w3.org/1999/xlink" x="0px" y="0px"
	 viewBox="0 0 198 168" style="enable-background:new 0 0 198 168;" xml:space="preserve">
<style type="text/css">
	.st0{fill:none;stroke:#72889C;stroke-miterlimit:10;}
	.st1{fill:#FFFFFF;stroke:#72889C;stroke-miterlimit:10;}
</style>
<title>define-portfolio</title>
<desc>Created with Sketch.</desc>
<path id="Shape" class="st0" d="M117.3,22.5V1.2c0-0.1-0.1-0.2-0.2-0.2l0,0c-7.3,0.5-13.6,4.1-18,10v0.1c0,0,0,0.1,0.1,0.1
	L117.3,22.5L117.3,22.5z"/>
<path id="Shape_1_" class="st0" d="M94.7,29.2C94.6,29.2,94.6,29.2,94.7,29.2c-0.1,0.1-0.2,0.2-0.1,0.2c1.4,9.4,7.6,16.8,16.6,19.8
	h0.1c0.1,0,0.2,0,0.2-0.1l5.3-21.4L94.7,29.2L94.7,29.2z"/>
<path id="Shape_2_" class="st0" d="M94.5,25.7l19-1.3L97.3,14.2h-0.1c0,0-0.1,0-0.2,0.1c-1.9,3.5-2.8,7.2-2.8,11.2
	C94.3,25.6,94.4,25.7,94.5,25.7L94.5,25.7z"/>
<path id="Shape_3_" class="st0" d="M115.1,50.2c1.4,0.2,2.8,0.4,4.2,0.4c2.9,0,5.8-0.5,8.5-1.5c4.1-1.5,7.7-4.2,10.5-7.6L127.8,34
	l-7.6-5.3L114.9,50v0.1C114.9,50.2,115,50.2,115.1,50.2L115.1,50.2z"/>
<path id="Shape_4_" class="st0" d="M144,26.2c0.1-4.2-1-8.4-3.1-12.2c0-0.1-0.1-0.1-0.2-0.1h-0.1l-18.4,11.9l18.1,12.7
	C142.7,34.7,144,30.4,144,26.2L144,26.2z"/>
<path id="Shape_5_" class="st0" d="M138.8,10.7L138.8,10.7c-4.4-5.9-10.5-9.2-17.7-9.7l0,0c-0.1,0-0.2,0.1-0.2,0.2v21.3l17.8-11.6
	C138.8,10.8,138.8,10.8,138.8,10.7L138.8,10.7z"/>
<path id="Shape_7_" class="st0" d="M172.2,82H96.1c-1.2,0-2.3-0.6-3-1.6l-5.3-8c-0.5-0.7-1.3-1.2-2.2-1.2H30.2
	c-0.7,0-1.4,0.3-1.9,0.8s-0.7,1.2-0.7,2l6.2,90.5c0.1,1.4,1.2,2.4,2.6,2.4h130.4c1.5,0,2.7-1.1,2.8-2.6L175,85
	c0.1-0.8-0.2-1.5-0.7-2.1C173.7,82.4,173,82,172.2,82L172.2,82z"/>
<path id="Shape_9_" class="st1" d="M172.2,81H96.1c-0.9,0-1.7-0.4-2.2-1.2l-5.3-8c-0.7-1-1.8-1.6-3-1.6H30.2c-1,0-2,0.4-2.6,1.1
	c-0.6,0.7-1,1.7-1,2.7l6.2,90.5c0.1,1.9,1.7,3.4,3.6,3.4h130.4c2,0,3.7-1.6,3.8-3.5l5.4-79.3c0.1-1-0.3-2.1-1-2.9
	C174.3,81.5,173.3,81,172.2,81L172.2,81z M169.6,164.3c-0.1,1.5-1.3,2.6-2.8,2.6H36.4c-1.4,0-2.5-1.1-2.6-2.4L27.6,74
	c0-0.7,0.2-1.4,0.7-2c0.5-0.5,1.2-0.8,1.9-0.8h55.4c0.9,0,1.7,0.4,2.2,1.2l5.3,8c0.7,1,1.8,1.6,3,1.6h76.1c0.8,0,1.5,0.3,2.1,0.9
	c0.5,0.6,0.8,1.3,0.7,2.1L169.6,164.3L169.6,164.3z"/>
<path id="Shape_10_" class="st1" d="M139.4,71l-4.2-6.2c-0.4-0.6-1.3-0.9-2-0.5l-8.5,3.9c-0.3,0.1-0.4,0.4-0.2,0.7
	c0.1,0.3,0.4,0.4,0.7,0.2l8.5-3.9c0.3-0.1,0.6,0,0.7,0.2l4.2,6.2c0.5,0.7,1.4,0.9,2.1,0.5l13.8-8c0.3-0.2,0.6-0.1,0.8,0.2l5.9,8.9
	c0.2,0.4,0.6,0.6,1,0.7h0.3c0.3,0,0.6-0.1,0.9-0.3l22.7-15c0.2-0.2,0.3-0.5,0.1-0.7c-0.2-0.2-0.5-0.3-0.7-0.1l-22.7,15
	c-0.1,0.1-0.3,0.1-0.4,0.1c-0.2,0-0.3-0.1-0.4-0.3l-5.9-8.9c-0.5-0.7-1.4-0.9-2.1-0.5l-13.8,8C139.9,71.3,139.6,71.2,139.4,71
	L139.4,71z"/>
<path id="Shape_13_" class="st1" d="M118.6,57.6c0.1-0.3-0.1-0.5-0.3-0.6c-0.3-0.1-0.5,0.1-0.6,0.3l-5.6,16.5
	c-0.3,0.9-0.2,1.9,0.2,2.7c0.4,0.9,1.2,1.5,2.1,1.8l2,0.7h0.2c0.2,0,0.4-0.1,0.5-0.3c0.1-0.3-0.1-0.5-0.3-0.6l-2-0.7
	c-0.7-0.2-1.2-0.7-1.5-1.3c-0.3-0.6-0.4-1.3-0.1-2L118.6,57.6L118.6,57.6z"/>
<path id="Shape_14_" class="st1" d="M196.9,52.7c-0.4-0.9-1.2-1.5-2.1-1.8l-48.3-16.3c-0.3-0.1-0.5,0.1-0.6,0.3
	c-0.1,0.3,0.1,0.5,0.3,0.6l48.3,16.3c0.7,0.2,1.2,0.7,1.5,1.3c0.3,0.6,0.4,1.3,0.1,2l-14.2,42.2c-0.5,1.4-1.9,2.1-3.3,1.6l-1.1-0.4
	c-0.3-0.1-0.5,0.1-0.6,0.3c-0.1,0.3,0.1,0.5,0.3,0.6l1.1,0.4c0.4,0.1,0.8,0.2,1.1,0.2c1.5,0,2.9-0.9,3.4-2.5L197,55.3
	C197.4,54.5,197.4,53.5,196.9,52.7L196.9,52.7z"/>
<path id="Shape_15_" class="st1" d="M117.9,27.1c0.1-0.3-0.1-0.5-0.4-0.5l0,0l-22.9,1.6c-0.7,0-1.2,0.7-1.1,1.4
	c1.4,9.7,8,17.5,17.3,20.6c0.1,0,0.3,0.1,0.4,0.1c0.5,0,1-0.4,1.2-0.9L117.9,27.1L117.9,27.1z M111.4,49.1c0,0.1-0.1,0.1-0.2,0.1
	c0,0,0,0-0.1,0c-9-3-15.2-10.4-16.6-19.8v-0.1l0.1-0.1l22-1.5L111.4,49.1L111.4,49.1z"/>
<path id="Shape_16_" class="st1" d="M98.7,12.1l19,11.9c0.1,0,0.1,0.1,0.2,0.1c0.2,0,0.4-0.2,0.4-0.4V1.2c0-0.7-0.5-1.2-1.2-1.2H117
	c-7.6,0.6-14.2,4.2-18.7,10.4C98,10.9,98.1,11.7,98.7,12.1L98.7,12.1z M99.2,11c4.3-5.9,10.7-9.4,18-10l0,0c0.1,0,0.2,0.1,0.2,0.2
	v21.3L99.2,11.2c-0.1,0-0.1-0.1-0.1-0.1C99.1,11,99.1,11,99.2,11L99.2,11z"/>
<path id="Shape_17_" class="st1" d="M94.5,26.7L94.5,26.7l20.9-1.5c0.4,0,0.5-0.5,0.2-0.7L97.9,13.4c-0.2-0.1-0.4-0.2-0.6-0.2
	c-0.4,0-0.8,0.2-1,0.6c-2,3.7-2.9,7.5-2.9,11.7C93.3,26.1,93.8,26.7,94.5,26.7L94.5,26.7z M97.1,14.3c0-0.1,0.1-0.1,0.2-0.1h0.1
	l16.2,10.1l-19,1.3c-0.1,0-0.2-0.1-0.2-0.2C94.3,21.5,95.2,17.8,97.1,14.3L97.1,14.3z"/>
<path id="Shape_18_" class="st1" d="M114.9,51.2c1.5,0.2,2.9,0.4,4.4,0.4c3,0,6-0.5,8.9-1.6c4.3-1.6,8.1-4.3,11-8
	c0.4-0.4,0.3-1.1-0.2-1.4l-10.6-7.4l-8.3-5.8c-0.1,0-0.1-0.1-0.2-0.1c-0.2,0-0.3,0.1-0.4,0.3L114,49.7
	C113.8,50.4,114.2,51.1,114.9,51.2L114.9,51.2z M120.2,28.7l7.6,5.3l10.6,7.4c-2.8,3.5-6.4,6.1-10.5,7.6c-2.7,1-5.6,1.5-8.5,1.5
	c-1.4,0-2.8-0.1-4.2-0.4c-0.1,0-0.1-0.1-0.1-0.1v-0.1L120.2,28.7L120.2,28.7z"/>
<path id="Shape_19_" class="st1" d="M121,26.1l18.8,13.2c0.2,0.1,0.4,0.2,0.6,0.2c0.3,0,0.7-0.2,0.8-0.5c2.4-4,3.7-8.4,3.8-12.8
	s-1-8.7-3.2-12.7c-0.2-0.4-0.6-0.6-1-0.6c-0.2,0-0.4,0.1-0.6,0.2L121,25.4C120.8,25.6,120.8,25.9,121,26.1L121,26.1z M140.7,13.9
	C140.7,13.8,140.7,13.8,140.7,13.9c0.2,0,0.2,0,0.3,0.1c2.1,3.8,3.2,8.1,3.1,12.2c-0.1,4.2-1.3,8.5-3.6,12.3l-18.1-12.7L140.7,13.9
	L140.7,13.9z"/>
<path id="Shape_20_" class="st1" d="M120.3,24c0.1,0,0.1,0,0.2-0.1l18.8-12.2c0.6-0.4,0.7-1.1,0.3-1.7c-4.6-6.1-10.9-9.5-18.4-10
	h-0.1c-0.6,0-1.2,0.5-1.2,1.2v22.4C119.9,23.8,120.1,24,120.3,24L120.3,24z M120.9,1.2c0-0.1,0.1-0.2,0.2-0.2l0,0
	c7.2,0.5,13.3,3.8,17.7,9.6v0.1c0,0,0,0.1-0.1,0.1l-17.8,11.6V1.2L120.9,1.2z"/>
<path id="Shape_21_" class="st1" d="M21.5,64.7l6.5-1.8c0.6-0.2,1.1,0.2,1.3,0.7l1.4,5.1c0.1,0.3,0.3,0.4,0.6,0.3
	c0.3-0.1,0.4-0.3,0.3-0.6l-1.4-5.1c-0.3-1.1-1.4-1.7-2.5-1.4l-6.5,1.8c-0.5,0.1-1,0.5-1.2,1c-0.3,0.5-0.3,1-0.2,1.6l4.4,15.9
	c0.1,0.2,0.3,0.4,0.5,0.4h0.1c0.3-0.1,0.4-0.3,0.3-0.6l-4.3-16C20.7,65.5,21,64.9,21.5,64.7L21.5,64.7z"/>
<path id="Shape_22_" class="st1" d="M34.3,42.5l6.5-1.8c0.6-0.2,1.1,0.2,1.3,0.7l7.3,26.4c0.1,0.2,0.3,0.4,0.5,0.4H50
	c0.3-0.1,0.4-0.3,0.3-0.6L43,41.2c-0.1-0.5-0.5-1-1-1.2c-0.5-0.3-1-0.3-1.6-0.2L34,41.5c-1.1,0.3-1.7,1.4-1.4,2.5l6.6,23.8
	c0.1,0.3,0.4,0.4,0.6,0.3c0.3-0.1,0.4-0.3,0.3-0.6l-6.6-23.8C33.4,43.2,33.7,42.7,34.3,42.5L34.3,42.5z"/>
<path id="Shape_23_" class="st1" d="M53.7,44.5l6.5-1.8c0.6-0.2,1.1,0.2,1.3,0.7l6.8,24.4c0.1,0.2,0.3,0.4,0.5,0.4h0.1
	c0.3-0.1,0.4-0.3,0.3-0.6l-6.8-24.4c-0.3-1.1-1.4-1.7-2.5-1.4l-6.5,1.8c-1.1,0.3-1.7,1.4-1.4,2.5l6,21.8c0.1,0.3,0.4,0.4,0.6,0.3
	c0.3-0.1,0.4-0.3,0.3-0.6l-6-21.8C52.8,45.2,53.2,44.7,53.7,44.5L53.7,44.5z"/>
<path id="Shape_24_" class="st1" d="M74.6,51.7l6.5-1.8c0.6-0.2,1.1,0.2,1.3,0.7l4,14.3c0.1,0.3,0.3,0.4,0.6,0.3
	c0.3-0.1,0.4-0.3,0.3-0.6l-4-14.3c-0.3-1.1-1.4-1.7-2.5-1.4l-6.5,1.8c-0.5,0.1-1,0.5-1.2,1c-0.2,0.5-0.3,1-0.2,1.6l4,14.3
	c0.1,0.2,0.3,0.4,0.5,0.4h0.1c0.3-0.1,0.4-0.3,0.3-0.6l-4-14.3c-0.1-0.3,0-0.6,0.1-0.8C74.1,51.9,74.3,51.8,74.6,51.7L74.6,51.7z"/>
<path id="Shape_25_" class="st1" d="M25.5,93.3l-6,1.7c-0.7,0.2-1.4,0.1-2-0.2c-0.6-0.3-1-0.9-1.2-1.6L2.1,42.1
	c-0.2-0.7-0.1-1.4,0.2-2c0.3-0.6,0.9-1,1.6-1.2l78.6-21.8c1.4-0.4,2.8,0.4,3.2,1.8L99.8,70c0.2,0.7,0.1,1.4-0.2,2
	c-0.3,0.6-0.9,1-1.6,1.2l-4.6,1.3c-0.3,0.1-0.4,0.4-0.3,0.6c0.1,0.3,0.4,0.4,0.6,0.3l4.6-1.3c0.9-0.3,1.7-0.9,2.2-1.7
	c0.5-0.8,0.6-1.8,0.3-2.7L86.6,18.6c-0.3-0.9-0.9-1.7-1.7-2.2c-0.8-0.5-1.8-0.6-2.7-0.3L3.6,37.9c-0.9,0.3-1.7,0.9-2.2,1.7
	c-0.5,0.8-0.6,1.8-0.3,2.7l14.2,51.1c0.3,0.9,0.9,1.7,1.7,2.2c0.5,0.3,1.2,0.5,1.8,0.5c0.3,0,0.6,0,1-0.1l6-1.7
	c0.3-0.1,0.4-0.3,0.3-0.6C26,93.4,25.7,93.3,25.5,93.3L25.5,93.3z"/>
</svg>
