<?xml version="1.0" encoding="utf-8"?>
<!-- Generator: Adobe Illustrator 20.1.0, SVG Export Plug-In . SVG Version: 6.00 Build 0)  -->
<svg version="1.1" id="Layer_1" xmlns="http://www.w3.org/2000/svg" xmlns:xlink="http://www.w3.org/1999/xlink" x="0px" y="0px"
	 viewBox="0 0 48 50" style="enable-background:new 0 0 48 50;" xml:space="preserve">
<style type="text/css">
	.st0{fill:#72889C;}
	.st1{fill:none;stroke:#000000;stroke-miterlimit:10;}
</style>
<title>Combined Shape Copy 2</title>
<path class="st0" d="M36.3,12.9l-7.9,7.9l-2.7-2.7l-7.1,7.1L16,22.6l-4.7,4.7L10,26l6-6l2.7,2.7l7.1-7.1l2.7,2.7l6.6-6.7l-1.3-1.3
	l5.7-1.9l-1.9,5.7C37.5,14.1,36.3,12.9,36.3,12.9z M23.1,31.1V35l-8,13.9l1.5,0.9l6.5-11.2v11.2h1.8V38.5l6.5,11.2l1.5-0.9l-8-13.9
	l0,0v-3.9H48V4.4H24.9V0h-1.8v4.4H0v26.7H23.1z M1.8,6.2h44.4v23.1H1.8V6.2L1.8,6.2z"/>
<line class="st1" x1="57" y1="-258" x2="57" y2="-257"/>
</svg>
