<?xml version="1.0" encoding="utf-8"?>
<!-- Generator: Adobe Illustrator 15.0.0, SVG Export Plug-In . SVG Version: 6.00 Build 0)  -->
<!DOCTYPE svg PUBLIC "-//W3C//DTD SVG 1.1//EN" "http://www.w3.org/Graphics/SVG/1.1/DTD/svg11.dtd">
<svg version="1.1" id="Layer_1" xmlns="http://www.w3.org/2000/svg" xmlns:xlink="http://www.w3.org/1999/xlink" x="0px" y="0px"
	 width="169.689px" height="159.416px" viewBox="0 0 169.689 159.416" enable-background="new 0 0 169.689 159.416"
	 xml:space="preserve">
<line fill="none" stroke="#73879B" stroke-width="3" stroke-linecap="round" stroke-linejoin="round" stroke-miterlimit="10" x1="5.747" y1="157.916" x2="168.189" y2="157.916"/>
<path fill="#0794D2" d="M123.344,144.263h-29.85V24.218h29.85V144.263z M125.344,22.218h-33.85v124.044h33.85V22.218z"/>
<path fill="#73879B" d="M166.189,144.263h-29.849V73.876h29.849V144.263z M168.189,71.876h-33.849v74.386h33.849V71.876z"/>
<path fill="#73879B" d="M80.499,144.263H50.649V86.24h29.849V144.263z M82.499,84.24H48.649v62.022h33.849V84.24z"/>
<path fill="#73879B" d="M37.596,144.263H7.747v-23.712h29.849V144.263z M39.596,118.551H5.747v27.712h33.849V118.551z"/>
<line fill="none" stroke="#0794D2" stroke-width="2" stroke-linecap="round" stroke-linejoin="round" stroke-miterlimit="10" x1="123.664" y1="30.819" x2="93.174" y2="47.986"/>
<line fill="none" stroke="#0794D2" stroke-width="2" stroke-linecap="round" stroke-linejoin="round" stroke-miterlimit="10" x1="123.664" y1="47.987" x2="93.174" y2="65.154"/>
<line fill="none" stroke="#0794D2" stroke-width="2" stroke-linecap="round" stroke-linejoin="round" stroke-miterlimit="10" x1="123.664" y1="67.073" x2="93.174" y2="84.24"/>
<line fill="none" stroke="#0794D2" stroke-width="2" stroke-linecap="round" stroke-linejoin="round" stroke-miterlimit="10" x1="123.664" y1="84.24" x2="93.174" y2="101.407"/>
<line fill="none" stroke="#0794D2" stroke-width="2" stroke-linecap="round" stroke-linejoin="round" stroke-miterlimit="10" x1="123.664" y1="101.383" x2="93.174" y2="118.55"/>
<line fill="none" stroke="#0794D2" stroke-width="2" stroke-linecap="round" stroke-linejoin="round" stroke-miterlimit="10" x1="123.664" y1="118.551" x2="93.174" y2="135.718"/>
<line fill="none" stroke="#73879B" stroke-width="2" stroke-linecap="round" stroke-linejoin="round" stroke-miterlimit="10" x1="80.819" y1="92.248" x2="50.329" y2="109.415"/>
<line fill="none" stroke="#73879B" stroke-width="2" stroke-linecap="round" stroke-linejoin="round" stroke-miterlimit="10" x1="80.819" y1="109.416" x2="50.329" y2="126.583"/>
<line fill="none" stroke="#73879B" stroke-width="2" stroke-linecap="round" stroke-linejoin="round" stroke-miterlimit="10" x1="80.819" y1="126.559" x2="50.329" y2="143.726"/>
<line fill="none" stroke="#73879B" stroke-width="2" stroke-linecap="round" stroke-linejoin="round" stroke-miterlimit="10" x1="166.299" y1="84.294" x2="135.81" y2="101.461"/>
<line fill="none" stroke="#73879B" stroke-width="2" stroke-linecap="round" stroke-linejoin="round" stroke-miterlimit="10" x1="166.299" y1="101.461" x2="135.81" y2="118.628"/>
<line fill="none" stroke="#73879B" stroke-width="2" stroke-linecap="round" stroke-linejoin="round" stroke-miterlimit="10" x1="166.299" y1="118.604" x2="135.81" y2="135.771"/>
<line fill="none" stroke="#73879B" stroke-width="2" stroke-linecap="round" stroke-linejoin="round" stroke-miterlimit="10" x1="37.916" y1="123.822" x2="7.426" y2="140.989"/>
<g>
	<defs>
		<rect id="SVGID_1_" x="-42.939" y="-48.584" width="255.068" height="255.068"/>
	</defs>
	<clipPath id="SVGID_2_">
		<use xlink:href="#SVGID_1_"  overflow="visible"/>
	</clipPath>
	
		<path clip-path="url(#SVGID_2_)" fill="none" stroke="#73879B" stroke-width="2" stroke-linecap="round" stroke-linejoin="round" stroke-miterlimit="10" stroke-dasharray="5,7" d="
		M1,100.832c0,0,64.574-22.696,68.821-84.283"/>
	<path clip-path="url(#SVGID_2_)" fill="none" stroke="#73879B" stroke-width="2" stroke-miterlimit="10" d="M62.266,16.546
		c-1.1,0.002-1.551-0.777-1.003-1.73l7.534-13.1c0.549-0.953,1.449-0.955,2-0.003l7.578,13.074c0.551,0.952,0.102,1.732-0.998,1.734
		L62.266,16.546z"/>
</g>
</svg>
