<?xml version="1.0" encoding="utf-8"?>
<!-- Generator: Adobe Illustrator 20.1.0, SVG Export Plug-In . SVG Version: 6.00 Build 0)  -->
<svg version="1.1" id="world-map" xmlns="http://www.w3.org/2000/svg" xmlns:xlink="http://www.w3.org/1999/xlink" x="0px" y="0px"
	 viewBox="0 0 784.1 458.6" style="enable-background:new 0 0 784.1 458.6;" xml:space="preserve">
<style type="text/css">
	.st0{fill:#29394D;stroke:#798692;stroke-miterlimit:10;}
	.st1{fill:#00A3E0;stroke:#798692;stroke-miterlimit:10;}
	.st2{fill:#29394D;stroke:#798692;stroke-width:2;stroke-miterlimit:10;}
	.st3{fill:#888C8B;stroke:#0F2A40;stroke-miterlimit:10;}
</style>
<title>Simple World Map</title>
<desc>Author: Al MacDonald
    Editor: Fritz Lekschas
    License: CC BY-SA 3.0
    ID: ISO 3166-1 or &quot;_[a-zA-Z]&quot; if an ISO code is not available</desc>
<path id="mx" class="st0" d="M106.5,194.8l4.3,13.4l-2,1.1l0.2,2.7l3.8,2.9v5.3l4.7,4.4l-2-13.1l-2.7-8.6l0.7-6l2.2,0.2l0.9,2
	l-0.9,5.1l11.6,22.4v8l9.3,10.9l10.2,4.7l4.2-2.4l6,4.9l3.6-3.5l-1.6-4l5.1-1.5l1.6,0.9l1.6-1.5h2.4l4.4-7.8l-2.2-2l-8.7,2l-2,5.8
	l-5.1,0.9l-6-2.4l-2.7-8.4l2-10.6l-4.1-2.5l-2-10.2l-1.6-0.7l-3,3l-3.5-1.8l-1.4-6.8l-13.7-1.4l-7.1-5.3L106.5,194.8L106.5,194.8z"
	/>
<path id="dz" class="st0" d="M406.8,196.6l-3.6-1.2l-15.2,2.8l-3.3,2.5l2,10.3l-6,0.2l-3.6,5.7l-8.6,2v4.2l28.4,21.4l4.8,0.4
	l16.2-12.4l-1.6-2l-3-0.4l-1.8-3v-12.4l-1.2-1.2l0.2-3.2l-3.2-3.2l-0.4-3.4l1.4-1l-0.6-3.6L406.8,196.6L406.8,196.6z"/>
<path id="ma" class="st0" d="M490.9,320.3h-10.3l-2,4.4l-4.6,2.2l-3.8,10.2l-7.5,4.4l-10.5,17.1l10.3-0.2l0.4-5h2.6v-6.8h9.1
	l0.2-8.8l8.7-2l3.6-5.8l5.6-0.2L490.9,320.3L490.9,320.3z"/>
<path id="mr" class="st0" d="M345.2,239.8l1.9,2.5l-0.4,10.8l2.8-2l2-0.4l2.8,1l3.2,4.4l3-2l14.7-0.2l-3.6-24.3h3.9l-7.3-5.5v3.6
	H359v6.8h-2.6l-0.3,5L345.2,239.8L345.2,239.8z"/>
<path id="gm" class="st0" d="M347.1,258.9l-0.1,1l6.2-0.1l0.3-0.9l-0.1-0.9l-1.8,0.7L347.1,258.9L347.1,258.9z"/>
<path id="sn" class="st0" d="M352.9,260.7l-6-0.1l0,0l1.1,2.6l0.6-1.6l7.5,0.8h0.8l3.5,0.1l0.1-1.5l-3.2-3.8l-3.6-4.8l-2.2-0.9
	l-1.7,0.4l0,0l-3.5,2.5l-0.8,1.4l-0.2,1.4l1.3,0.9l4.3-0.1l2.8-0.7l0.3,1.3l-0.2,1.8L352.9,260.7z"/>
<path id="gw" class="st0" d="M348.6,264.3l1.2,2.4l3.5-3v-0.9l-4.1-0.6L348.6,264.3L348.6,264.3z"/>
<path id="gn" class="st0" d="M350.2,267.3l2.7,4.1l3.5-3l3.6-0.2l3,3.9l2.6,1.7l1-1.8l0.9-0.5l-0.1-4.1l-1.7-4.8l-5.2,0.6l-6.5-0.5
	v1.6L350.2,267.3L350.2,267.3z"/>
<path id="sl" class="st0" d="M353.3,271.9l5,4.8l3.6-4.3l-2.2-3.5l-3.1,0.3L353.3,271.9L353.3,271.9z"/>
<path id="lr" class="st0" d="M358.9,277.2l9.8,6.5l-0.2-4.9l-3-3.4l-2.9-2.5L358.9,277.2L358.9,277.2z"/>
<path id="ci" class="st0" d="M369.5,283.9l3.8-2.7l4.7-0.8l4.8,1l-2.5-3.7l-0.7-2.3l0.7-6.7l-4.3,0.2l-2-1.8l-4.1,0.1l-2,0.3
	l0.2,4.5l-1,0.4l-1.2,2.3l3.2,3.7L369.5,283.9L369.5,283.9z"/>
<path id="ml" class="st0" d="M358.3,256.7l2.7-1.9l15.3-0.1l-3.5-24.2l4-0.1l19.6,14.7l2.6,0.4l-1,8.2l-12.2,1.1l-9.4,7l-1.7,4.8
	l-6.6,0.3l-1.7-4.9l-5,0.4l0.2-1.6L358.3,256.7L358.3,256.7z"/>
<path id="bf" class="st0" d="M386.1,255.3l3.2-0.3l5.3,7.4l-4.9,3.7l-3.6-0.9l-4.8,0.1l-0.8,2.8l-4,0.2l-1.1-1.5l1.4-4.5
	L386.1,255.3L386.1,255.3z"/>
<path id="ne" class="st0" d="M395.2,262.1l2.3-0.1l2-3l3.4-0.6l3.7,2.2l7.8,0.2l6-2.4l2.3-1.9l0.2-2.5l4.2-4.2l1.1-9.3l-2.8-5.7
	l-7.1-1.7l-16.5,12.6l-2.3-0.2l-1,8.8l-8.4,0.8L395.2,262.1L395.2,262.1z"/>
<path id="gh" class="st0" d="M380.5,275.4l1,2.3l2.6,4l1.4-0.1l3.9-2.2l-0.3-12.6l-3-0.9l-4.3,0.1L380.5,275.4L380.5,275.4z"/>
<path id="tg" class="st0" d="M390.2,279.1l2.4-1.4l-0.1-9.1l-1.5-2.5l-1,0.8L390.2,279.1L390.2,279.1z"/>
<path id="bj" class="st0" d="M393.3,277.5h1.9l0.1-5.3l2.4-3.4l-0.1-6l-2.2-0.1l-3.7,2.9l1.5,2.9L393.3,277.5L393.3,277.5z"/>
<path id="ng" class="st0" d="M395.8,277.4l3.5,0.2l4.2,4.6l2,0.6l1.6-0.8l2.4-0.3l0.8-3.4l3.3-2.2l3.6-0.2l6.6-12l-0.1-2.7l-3-2.3
	l-6.1,2.6l-8.1-0.1l-3.9-2.4l-2.8,0.6l-1.4,2.5l-0.1,7l-2.3,3.3L395.8,277.4L395.8,277.4z"/>
<path id="tn" class="st1" d="M407.8,196.4l4.9-2l1.6,1l0.1,1.3l-0.8,1l0.1,1.7l0.8,0.4v3.1l-0.9,1.4l0.1,0.9l3.3,1.2l-2.7,4.1
	l-1-0.1l-0.2,3.3l-1.2,0.2l-1-0.9l0.2-3.3l-3.2-3.1l-0.4-2.7l1.6-1.2L407.8,196.4L407.8,196.4z"/>
<path id="ly" class="st0" d="M412.4,214.7l1.4-0.2l0.4-3.2h0.7l2.8-4.6l7,2l1.9,2.9l6.9,3.1l3.6-1.5l-0.3-1.5l-1.6-1.5l0.2-1
	l2.5-2.1h5l1.9,2.5l4.1,0.6l0.5,32.4l-3-0.1l-18.3-9.3l-2,1.1l-7.5-1.8l-2-2.6l-3-0.4l-1.5-2.6L412.4,214.7L412.4,214.7z"/>
<path id="eg" class="st1" d="M449.7,210.3l2.4,0.1l4.6,1.3l2.2,0.1l2.7-2.3h1.3l2.3,1.3h2.9h0.5l1.9,5.3l0.5,1.7l0.5,2.5l-0.9,0.6
	l-1.5-0.7l-1.7-5.6l-1.6-0.1l-0.1,1.9l1,3.3l8.3,10.2l0.2,4.4l-2.4,2.8l-22.9-0.3L449.7,210.3L449.7,210.3z"/>
<path id="td" class="st0" d="M423.7,256.8l0.1-2.6l4.2-4.1l1.1-10l-2.8-5.3l2-1l19.1,9.8l-0.1,9.6l-3.4,2.8v5l2.2,4.2h-3.9l-6.4,6.3
	l-0.2,1.9l-4.7-0.1l-0.1,0.9l-2.7-0.4l-1.9-3.5l-1.4-0.7l0.2-1.1l1.7-1.3V261l-2.4-0.4l-2.9-2.1L423.7,256.8L423.7,256.8
	L423.7,256.8z"/>
<path id="ss" class="st0" d="M473.7,270.1l-2.1,0.9l0.7,3.6h2.6l3.5,5.1l-2.8,0.4l-0.7,1.3l-0.1,1.9l-8.5-0.1l-0.9-1.3l-6-0.3
	l-11-11.2l1.1-0.7l4.7-1.4l10.2,0.8l3.5-0.8l2.3-3L473.7,270.1z"/>
<path id="sd" class="st0" d="M449.7,267.1l-2.6-1.5l-2.4-4.7l0.1-4.3l3.3-2.8l0,0l0.2-10.4l2.2,0.1l-0.2-5.8l23.1,0.2l3.3-3.3
	l7.1,11.2l-3.9,4.5v6.9l-4.7,10.1l-1.1,2.3l-3.8-5.4l-2.8,3.5l-3.1,0.8l-10.2-1l-4.6,1.5L449.7,267.1z"/>
<path id="cm" class="st0" d="M410.4,281.7l2.9,2.6l-0.2,4l15.8-0.4l1.3-1.4l-4.5-4.8L425,280l2.9-5.3l-1.9-3.5l-1.6-0.9v-1.8
	l1.9-1.2l0.1-5.6l-1.5-0.2v2.9l-6.6,12.2l-4,0.2l-2.8,1.9L410.4,281.7L410.4,281.7z"/>
<path id="er" class="st0" d="M480.8,255.7l-0.2-5.2l3.5-4.1l1,0.7l1.7,5.7l8.3,6.1l-1.5,1.8l-6.1-5.2L480.8,255.7L480.8,255.7z"/>
<path id="dj" class="st0" d="M493.9,261.7l-0.5,3l3.5-0.1l0.1-4.3l-1.3-0.8L493.9,261.7L493.9,261.7z"/>
<path id="et" class="st0" d="M474.4,270.7l6.5-14.3h6.4l5.7,4.9l-0.4,4h4.4l0.5,2.4l7.2,4.2l4.4,0.2l-8.4,8.9l-11.5,3.5h-2.9
	l-5.1-4.3l-2-0.8l-3.9-5.7h-2.6l-0.3-2.6L474.4,270.7L474.4,270.7z"/>
<path id="_somaliland" class="st0" d="M497.8,264.8l3.6,2.4l1.1-0.1l9-3.1l1,3.3l-0.7,2.8l-1.9,1.5l-4.9-0.3l-7-4.2L497.8,264.8
	L497.8,264.8z"/>
<path id="so" class="st0" d="M512.3,263.9l3.9-1.5l1.4,0.8l-0.2,3.4l-3.6,10.1l-19.5,20.5l-2.3-1.5l-0.2-8.7l2.9-3.3l6.2-1.9
	l9.1-9.5l2.4-2.1l0.7-3.1L512.3,263.9L512.3,263.9z"/>
<path id="cf" class="st0" d="M426.3,281.5l4.1,4.4l1.6-2.1l2.6,0.1l0.6-2l2.6-1.6l5.3,3.6l3.1-3l11.9,0.5L447,270.1l1.5-0.9l0.2-2
	l-2.5-1.2h-3.7l-5.9,5.8l-0.2,2.4l-4.7-0.1l-0.2,1l-3.1-0.3l-2.8,5.2L426.3,281.5L426.3,281.5z"/>
<g id="st">
	<path class="st0" d="M404,293l1-0.5l0.8,0.6l-0.8,1.2l-0.9-0.4L404,293L404,293z"/>
	<path class="st0" d="M406,289.8l1.5-0.3l0.5,1l-0.8,0.8l-0.8-0.1L406,289.8L406,289.8z"/>
</g>
<path id="ga" class="st0" d="M418,289.1l-0.1,2.2l-5-0.1l-3.1,5.9l7.2,7.8l1.8-1.5l-0.1-1.5l-1.2-0.6v-1.1l2.8-1.7l2.5,1.8l2.7,0.1
	l-0.1-9.2l-4.3-0.2l-0.1-1.9L418,289.1L418,289.1z"/>
<g id="gq">
	<path class="st0" d="M409.5,284.5l-0.4,1.7l1.2,0.7l1.2-0.9l-0.4-1.8L409.5,284.5L409.5,284.5z"/>
	<path class="st0" d="M413.2,289.1l-0.1,1.2l4,0.2l-0.1-1.4L413.2,289.1L413.2,289.1z"/>
</g>
<path id="cg" class="st0" d="M422.1,289l-0.1,1.3l4.3,0.1l0.2,10.9l-3.9-0.1l-2.3-1.7l-1.7,1l-0.1,0.5l0.9,0.4l0.3,2.2l-2.4,2
	l0.5,1.1l2.7-2h1.3l0.4,1.2l1.7,0.7l5.4-4.5l-0.1-3.3l1.1-2.7l3.5-2.6l0.9-8.6h-2.5l-2.9,3.9L422.1,289L422.1,289z"/>
<path id="cd" class="st0" d="M420.7,309.4l9.2-0.2l1.9,2.6l-0.1,1.9l0.7,0.6h4.6l1.3-2.5h1.9l0.8,0.8l2.6-0.1l0.8,8.9l4.4,0.1v0.7
	l11.9,5.3l0.6,1h2.5l-0.3-3.7l-4.5-2.1l0.3-2.8l1.9-4.5l4.4-0.1l-3.8-12.4l0.1-5.3l6-9.3l0.1-1.3l-0.9-0.5V284l-1.1-0.1l-1.1-1.4
	l-18.2-0.8l-3.3,3.2l-5.4-3.5l-1.9,1.2l-1.8,11.4l-3.4,2.6l-1,2.3l0.2,3.4l-6.2,5l-1.6-0.7l0.2,1L420.7,309.4L420.7,309.4z"/>
<path id="rw" class="st0" d="M463.9,295.5l2.5,2.3l-0.1,2.4l-3.9,0.1v-2.7L463.9,295.5L463.9,295.5z"/>
<path id="bi" class="st0" d="M462.5,301l3.8-0.1l-1,3.3l-1,0.8h-1.2l-0.8-2.2L462.5,301L462.5,301z"/>
<path id="ug" class="st0" d="M464.3,294.7l2.7,2.5l1.7-1.1l4.6-0.7l0.8,0.1l0.3-1.7l2.6-5.4l-2.2-4.5h-7v1.8l0.9,0.9l-0.1,1.8
	L464.3,294.7L464.3,294.7z"/>
<path id="ke" class="st0" d="M475.6,283.7l2.4,4.6l-2.8,5.9l-0.4,1.8l14.2,8.7l4.4-6.8l-2.2-1.8v-9l2.8-3l-4.4,1.5h-3.4l-5.3-4.4
	l-1.7-0.7l-3.1,0.3l-0.5,0.9V283.7L475.6,283.7z"/>
<path id="tz" class="st0" d="M475.3,323.2l15.6-1.9l-3.5-6.7l-0.2-6.4l1.1-3.1l-14.8-9.2l-4.6,0.8l-1.6,1.2l-0.1,2.7l-1,3.7
	l-1.1,1.3l-1.6,0.1l3,10.2l4.9,2.3l3.4,0.1L475.3,323.2L475.3,323.2z"/>
<path id="zm" class="st0" d="M443.2,334.9l2.8,3.9l4.4,0.3l1.5,0.8l4.6,0.1l3.9-5.5l11-4.9l1-4.3l-1.3-6.1l-5.7-3.2l-3.8,0.3
	l-1.9,4.2l0.1,1.9l4.5,2.2l0.3,4.7l-3.9,0.2l-1-1.6l-10.8-4.6l-0.3,3.5l-5.1,0.2L443.2,334.9L443.2,334.9z"/>
<g id="ao">
	<path class="st0" d="M418.2,307.2l1.5,2l2-1.9l-0.6-1.9h-0.5L418.2,307.2L418.2,307.2z"/>
	<path class="st0" d="M420,310.2l3,11.2l-0.1,3.5l-4.4,4.7l-0.7,7.7l17.2,0.1l5.6,2l4.6-0.6l-2.7-3.3v-9.4l5.3-0.2v-3.7l-4.3-0.2
		l-0.9-8.7h-1.8l-1-0.9l-1.1,0.1l-1.4,2.7h-5.4l-1.3-1.2l0.4-1.8l-1.5-2.1L420,310.2L420,310.2z"/>
</g>
<path id="mw" class="st0" d="M472.3,330.2l2.8,2.9l-0.1,3.7l0.5,1.5l3.7-3.9l-0.4-5l-2-1.5l-1.8-8.8l-3-0.1l1.4,6.3L472.3,330.2
	L472.3,330.2z"/>
<path id="mz" class="st0" d="M466.9,360l2.4,2l5.6-3.4l0.9-5v-8.3l9.1-7.3l1.5,0.1l5.5-5.2l-0.9-10.7l-14.5,1.8l0.4,3.2l2.5,1.9
	l0.6,5.8l-4.9,4.7L474,337l0.2-3.5l-2.8-3l-6.9,3.2l6.4,3.2l0.2,9.4l-4.3,6.3L466.9,360L466.9,360z"/>
<path id="zw" class="st0" d="M452.2,341.5l8,8.9l6.1,1.5l4.1-6.4l-0.3-8.4l-6.7-3.4l-2.5,1.1l-3.7,5.6l-5.2-0.1L452.2,341.5
	L452.2,341.5z"/>
<path id="na" class="st0" d="M427.1,367.6l3,0.2l1.8,1.8l4.2,0.1l1-11.7v-7.6l2.7-0.5l1-8l6.8-0.2l2.4-2l-4-0.2l-5.5,0.7l-5.9-2.1
	H418l0.4,4.7l5.5,8.1l-1,4.1l0.1,2.2L427.1,367.6L427.1,367.6z"/>
<path id="bw" class="st0" d="M437.8,358.2l1.9,0.6l-0.3,5.4l2,0.3l4.5-4l5.4,0.6l1.4-3.6l6.9-6.2l-8.2-9.4l-0.1-1.5l-0.9-0.3
	l-2.5,2.3l-6.5,0.2l-0.9,8l-2.6,0.6L437.8,358.2L437.8,358.2z"/>
<path id="sz" class="st0" d="M466.6,360.6l-2.2,0.4l-1,2.6l1.7,1.5h2.1l1.8-2.5L466.6,360.6L466.6,360.6z"/>
<path id="ls" class="st0" d="M454.6,370.7l2.7-2.1l1.3,0.1l1.5,1.9l-0.2,1.9l-2.6,1v0.7l-2.8-0.2l-0.7-2.1L454.6,370.7L454.6,370.7z
	"/>
<path id="za" class="st0" d="M460.6,351.5l-7,6.4l-1.7,4l-5.6-0.7l-4.6,4.1l-3.1-0.3l0.2-5.6l-1.1-0.4l-0.8,11.5l-5.5-0.1l-1.6-1.9
	h-2.4l2.2,6.2l3.9,3.7l-2.8,3.2l1.8,4l4.2,1.6l3.3-2.8l9.6,0.1l0.7-0.8l4.3-0.7l14.4-14.2l-0.1-4.5l-1.5,2h-2.3l-2.8-2.3l1.4-3.5
	l2.4-0.5l-0.2-7.2L460.6,351.5L460.6,351.5z M457.3,367.8l1.3-0.1l2.2,2.3l-0.1,2.7l-2.6,1.3l-0.2,0.9H454l-1.2-2.9l1.1-2.1
	L457.3,367.8L457.3,367.8z"/>
<g id="gl">
	<path class="st0" d="M270.5,40.5l-1.2,1.9l2.2,2.2l-1,2.2l3.2,4.1l3.9-1.2l5.1-0.5l5.8,6.2l3.9,10.3l-3.1,6.5l4.4-0.7l2.4,1.4
		l0.2,3.1l-5.3,0.2l2.9,2.9l3.6,0.7l-8,10.5l-1,6.5l1.7,5.3l-1.2,3.1l2.2,6.7l4.1,4.5l1.2-0.2l2.7-0.7l0.2,3.8l1.7,2.4l3.1-0.2
		l2.4-8.8l7.3-8.8l10.9-4.3l6.8-8.4l3.1,1.4h6.5l5.3-5.3l6.5-2.6l0.7-4.1l-4.1-3.6l-3.6-1.2l-1.9-5l4.6-2.6L356,72l2.4-2.6l-3.9-2.2
		l8.2-11l-1.5-4.8l-3.9-0.2l1.4-4.3l4.8-2.2l9.9-8.6l-2.9-3.1l-11.1,1l-5.8,5.7l3.4-7.4l-3.9-1l-2.2,3.8l-3.1-2.6l-8.7,1l2.4-3.8
		l14.3-0.5l-3.6-4.8l-15.6-2.9l-6.3,1l0.2,3.1l-6.5-2.2l0.2-2.2l-4.6,1l-1,2.4l4.8,1.7l-5.1,3.6l-3.6-4.1l-5.1-1.4l-0.7,3.8H304
		l-1.9-4.1l-8-1.2l-4.4,2.2l-0.2,2.9l-5.6-0.7l-3.4,1.4l0.2,3.4v1.7l-6.3,1.2l-2.9-1.9l-1.9,3.1l2.9,3.1l6.1-0.7l0.5,1.9l-4.6,2.2
		L270.5,40.5L270.5,40.5z"/>
	<path class="st0" d="M289.9,77.8l1.5,2.2l-0.7,2.6h-1.5l-1.9-2.2l0.5-1.7L289.9,77.8L289.9,77.8z"/>
	<path class="st0" d="M350.6,71.9l4.1,1.2l-0.2,3.4l-4.4-2.2l-1-1.2L350.6,71.9L350.6,71.9z"/>
</g>
<g id="au">
	<path class="st1" d="M663.4,372.9l-0.3,22.3l-3.5,2.5l-0.3,2.2l4.7,3.1l11.7-2.2h6l2.2-3.1l13.3-2.5l9.5,2.8l-0.6,3.8l1.3,3.8
		l7.3-1.3l0.3,1.9l-4.7,3.5l1.6,1.3l3.5-1.3l-0.9,10.4l6.6,5l3.8-1.3l1.9,1.9l11.1-1.6l10.4-16.7l3.8-0.9l7.6-13.8l1.9-11.9l-4.7-6
		l1.9-1.3l-3.8-11.6l-4.1-2.8l0.6-15.7l-3.8-2.8l-0.9-8.8h-1.9l-6.3,20.8l-3.5,0.3l-7.9-7.9l4.4-11.6l-8.2-1.6l-9.2,2.5l-2.5,7.2
		l-4.1,0.9l-0.3-5l-17.2,10l0.3,3.8l-2.5,3.5h-6.3l-13.6,5.7L663.4,372.9L663.4,372.9z"/>
	<path class="st1" d="M721,433l-1.6,6.3l0.3,4.4l4.7-0.3l5.4-8.2L721,433L721,433z"/>
</g>
<path id="bn" class="st0" d="M680,277.3l-2.6,3.1l2.1,0.7l1.2-1.6L680,277.3L680,277.3z"/>
<g id="ph">
	<path class="st0" d="M688.6,258.2l-0.8,1.4l-0.4,1.8l-4.3,5.3l0.3,1.1l1.8-0.3l5.5-6.1L688.6,258.2L688.6,258.2z"/>
	<path class="st0" d="M695.4,256.2l-0.1,4.4l1.6,1.6l0.6,3.1l1.6,0.3l0.8-2l-1.3-0.9l-0.3-5.5L695.4,256.2L695.4,256.2z"/>
	<path class="st0" d="M700,257.9l-0.1,3.9l0.9,1.5l1.6-1.9L702,258L700,257.9L700,257.9z"/>
	<path class="st0" d="M701.1,254.5l1.6,2.1l0.8,2h1.5l-0.3-3.5l-1.6-1.1L701.1,254.5L701.1,254.5z"/>
	<path class="st0" d="M704.2,262.4l0.3,2.5l-3,2.4l-2.5,0.3l-2.6,2.8l0.1,1.3l2.5-0.8l1.7-1.1l1.4,3.6l2.6,1.8l1-0.3l0.9-1.1l-2-2
		l1.2-0.9l1.4,1.1l0.9-1.5l-0.9-1.9l-0.2-4.2L704.2,262.4L704.2,262.4z"/>
	<path class="st0" d="M690.3,236.6l-2.3,1.6l-0.3,5.1l3.6,6.9l1.2,0.9l1.5-1l2.6,0.4l0.5,2.3l2,0.2l0.9-1.3l-1.2-1.6l-1.5-1.4
		l-3.1-0.3l-1.6-2.6l1.9-2.8l0.2-2.5l-1.3-3.1L690.3,236.6L690.3,236.6z"/>
	<path class="st0" d="M691.5,251.8l0.7,2.4l1.2,0.8l0.9-1.1l-1.4-1.9L691.5,251.8L691.5,251.8z"/>
</g>
<path id="tw" class="st0" d="M686.9,214.9l-3.2,2.4l-0.2,4.6l2.7,3.1l0.7-0.6V214.9L686.9,214.9z"/>
<g id="jp">
	<path class="st1" d="M700.9,186.8l-1.5,1.4l0.6,2l1.3,0.1l0.9,4.4l1,1.1l1.8-1.6l0.2-4.9l-2.1-2.2L700.9,186.8L700.9,186.8z"/>
	<path class="st1" d="M708.5,182.8l-2.7,2.2l-0.6,2.8l1.9,1.3l2.7-2.8l0.4-3.1L708.5,182.8z"/>
	<path class="st1" d="M705.3,178.5l-4.3,4.9v2.4l2.7-0.3l4.2-3.7l2.8-0.5l0.7,0.8v2.4l0.7,1.3h1.3l1.8-2.2l0.8-2.9l3.7-0.1l3.6-4.2
		l-1.9-7l-0.9-3.7l1.9-1.5l-4.3-6.4l-1-0.8l-1.9,0.8l-0.5,2.6v2.1l1,1.2l0.3,5.6l-2.6,3.2l-1.5-0.9l-1.2,2.6l-0.3,2.5l0.9,1.4
		l-0.6,1.1l-2-1.6h-1.4l-1.2,0.7L705.3,178.5L705.3,178.5z"/>
	<path class="st1" d="M712.7,140.2l-1.4,1.2l0.7,2.5l1.2,1.2l-0.1,3.9l-1.5,0.6l-1.2,2.6l3.5,4.7l2.3-0.8l0.4-1.2l-2.5-2.2l1.5-2
		l1.6,0.3l3.5,2.3l0.4-2.6l1.7-3l2.3-2.4l-2.5-1.1l-1-1.8l-1.3,0.8l-1.1,1.4l-2.4-0.5l-2.5-1.6L712.7,140.2L712.7,140.2z"/>
	<path class="st1" d="M725.6,137.6l-2.4,3.3l0.2,1.6l1.2-0.5l2.8-3.5L725.6,137.6L725.6,137.6z"/>
	<path class="st1" d="M728.7,132.8l-0.9,2.3l0.1,1.5l1.5-0.9l1.4-2.7v-1L728.7,132.8L728.7,132.8z"/>
</g>
<path id="mg" class="st0" d="M512.6,324.5l-1.9,4.5l-3.2,5.7l-5.8,0.3l-2.4,2.8l0.4,8.6l-3.5,4l0.4,6.9l3,3.4l3.5-0.4l3.5-2.6
	l-0.8-4l8.1-13.9l-1.6-1.8l1.6-3.4l1.8,0.5l0.5-1.3l-1.6-6.9l-1-2.8L512.6,324.5L512.6,324.5z"/>
<path id="dm" class="st0" d="M232.9,247.1l-0.8,1.6l0.9,1.2l1.2-1L232.9,247.1L232.9,247.1z"/>
<path id="lc" class="st0" d="M235.5,255.1l-0.6,1.3l1,1.1l1.3-0.7L235.5,255.1L235.5,255.1z"/>
<g id="vc">
	<path class="st0" d="M235.6,258.5l-1.1,0.8l0.9,1.6l1.4-0.8L235.6,258.5L235.6,258.5z"/>
	<path class="st0" d="M234.3,261.5l-1,1l0.4,0.6h1.3l0.4-1L234.3,261.5L234.3,261.5z"/>
</g>
<path id="tt" class="st0" d="M235.7,264.6l-0.9,0.9l-1,0.2v1.2l1.9,1.7l0.8-1.3l0.5-1.4l-0.2-1.2L235.7,264.6L235.7,264.6z"/>
<path id="pr" class="st0" d="M225.7,243.7l-2.3-0.8l-1.9,1.2l0.9,1.1l3.2,0.5L225.7,243.7L225.7,243.7z"/>
<path id="do" class="st0" d="M218.6,243.2l-4.7-3l-3-1l-0.6,5.6h0.6l0.8,1.5l1-1.2l3-0.8l2.6,0.5L218.6,243.2L218.6,243.2z"/>
<path id="ht" class="st0" d="M207.7,238.7l3.1,0.3l-0.4,3.7l-0.3,2l-3.6-0.2l-0.6,0.9l-1.1-0.1l-0.4-2l3.8-0.3l-0.2-2.1l-1.7-0.7
	L207.7,238.7L207.7,238.7z"/>
<path id="is" class="st0" d="M346.5,99.7l-1.7-1l-2.4,1.5l-2,1.8l0.1,1l2.6,0.3l-0.2,1.8L342,106l0.2,0.6l2.6,0.2v3l3.8,0.7l2.2,1.3
	l2.5,0.1l4.3-2.1l3.3-4.3l0.1-2.9l-2-1.7l-1.7-1.4l-0.8,0.5l-1.1,1.5l-1.3-0.2l-1.3-1.4l-1.7,0.1l-2.5,2l-1.5,1.6l-0.8-0.7l-0.1-1.7
	l0.8-0.5L346.5,99.7L346.5,99.7z"/>
<path id="lk" class="st0" d="M591.4,267.4l0.2,2.4l0.2,1.7l-1.3,0.2l0.7,3.9l2,1.1l3.1-1.7l-0.9-4.1l0.2-1.5l-2.8-2.6L591.4,267.4
	L591.4,267.4z"/>
<path id="cu" class="st0" d="M180.9,231.3v1.1l4.7,0.1l2.2-1.3l0.3,0.9l4.6,1.1l4.1,3.7l-0.9,1.3l0.2,1.5l3.4,0.9l3.4-1.5l1.5-1.5
	l-2.2-1.1l-11.5-6.7l-4-0.4L180.9,231.3L180.9,231.3z"/>
<g id="bs">
	<path class="st0" d="M197.7,224.4l-1.1-0.3l-0.1,2.1l1.4,1.4l0.9-1.4L197.7,224.4L197.7,224.4z"/>
	<path class="st0" d="M199.9,227.8l-1.5,0.9l1.5,2.1l0.8-1L199.9,227.8L199.9,227.8z"/>
	<path class="st0" d="M204.9,229.3l-1.6-0.1l0.2,1l1.2,1.7l1-1.1L204.9,229.3L204.9,229.3z"/>
	<path class="st0" d="M204.2,227.2l-2.7-1.1l-0.5-2.7l1-0.4l1,2.1l1,0.8L204.2,227.2L204.2,227.2z"/>
	<path class="st0" d="M201.6,221.8l-1.4-0.3l-0.3-1.7l-1.5-0.5l0.9-0.9l1.7,0.6l1.3,0.8L201.6,221.8L201.6,221.8z"/>
</g>
<path id="jm" class="st0" d="M197.1,242.4l-3.1,0.8v0.9l1.8,1h1.9l1.2-1.4L197.1,242.4L197.1,242.4z"/>
<g id="id">
	<path class="st1" d="M628.8,275.8l-0.2,2l6,10h1.8l12.6,20.8l5,0.5l2.5-7.3l-4-2.5l-0.8-4L628.8,275.8L628.8,275.8z"/>
	<path class="st1" d="M688.7,303.6l2,2.4l-1.3,3.7v0.7h3l1.1-9.1l1,0.3l1.7,8.4l1.7,0.4l1.6-3.6l-1.6-5.4l-1.3-2.4l4.1-3l-1-1.3
		l-3.9,2.5h-1.1l-1.9-2.8l0.6-1.2l3.2-1.6l4.9,1.5l1.5-0.1l3.7-3.4l-1.5-1.5l-3.4,2.6h-2.2l-3.3-1.6l-2.4,0.1l-2.6,4.2l-1.7,7.2
		L688.7,303.6L688.7,303.6z"/>
	<path class="st1" d="M710.7,287.2l-1.7,4l2.6,3.4h0.9l1.1-2.3l0.6-0.8l-1.1-1.2l-1.7-0.6L710.7,287.2L710.7,287.2z"/>
	<path class="st1" d="M715.9,300.3l-3.6,0.8l-1.1,1.1l0.9,1.5l2.4-0.9l1.5-0.9l2.2,1.7l1-0.8l-1.7-2.1L715.9,300.3L715.9,300.3z"/>
	<path class="st1" d="M656.2,311.7l-2.4,1.7l0.5,1.4l7.8,1.7l3.9,0.7l1.7,1.7l4.5,0.4l2.1,1.7l1.9-0.4l1.8-1.6l-3.2-1.5l-2.8-2.3
		l-7.3-1.7L656.2,311.7L656.2,311.7z"/>
	<path class="st1" d="M681.8,319.2l-1.9,1l1.1,1.2l2.8-1L681.8,319.2L681.8,319.2z"/>
	<path class="st1" d="M685.1,318.5l0.3,1.7l2,0.5l0.8-1l-0.9-1.3L685.1,318.5L685.1,318.5z"/>
	<path class="st1" d="M689.9,322.8l-2.4,0.4l2.2,1.8h1.7L689.9,322.8L689.9,322.8z"/>
	<path class="st1" d="M690.6,319.9l-0.5,1l3.9,0.6l3.1-1.7l-1.7-0.5l-2.8,0.8l-1.1-0.9L690.6,319.9L690.6,319.9z"/>
	<path class="st1" d="M703.5,320.5l-4.5,3.7l0.4,1l1.9-0.4l2.3-2.1l4.5-0.6l-0.9-1.5L703.5,320.5L703.5,320.5z"/>
	<path class="st1" d="M726.5,295l-3.7,0.4l-2.4,1.7l1,2l4,0.7v0.7l-2.6,2.1l1.2,4.3l1.2,0.1l1.1-4.2h2l0.8,4.1l9.6,7.9l0.2,6.2
		l3.3,3.5l1.5-0.1l0.3-21.7l-5.6-3.9l-5.3,3.5l-1.9,1.2l-3.1-2l-0.1-6.2L726.5,295L726.5,295z"/>
	<path class="st1" d="M681.7,281.8l-2.1,7.6l-11.2,3.7l-3.3-3.9l-1.6,0.4l3,11.5l4.5,0.5l6,2.3v2.3l2.8-0.5l4-5.5v-4.5l2.3-4.5
		l2.5,0.5l-3-6.3l-0.5-4L681.7,281.8L681.7,281.8z"/>
</g>
<g id="us">
	<path class="st0" d="M45.5,43.4l3.1,5.7l2-0.4v-2L45.5,43.4L45.5,43.4z"/>
	<path class="st0" d="M28.1,93.5l-0.2,2.6l1.9-0.4v-1.2L28.1,93.5L28.1,93.5z"/>
	<path class="st0" d="M25.1,94.6l-3.8,1.9l0.6,2.1l1.5-1.2l3-1.3L25.1,94.6L25.1,94.6z"/>
	<path class="st0" d="M9,97.1l-2.7-0.6l-0.4,1.2l0.3,2.2L9,97.1L9,97.1z"/>
	<path class="st0" d="M3.4,97l-2.5-1L0,97.6l1.6,1.6L3.4,97L3.4,97z"/>
	<path class="st0" d="M66.8,36l-7.5,1.8l1.5,8.3l8.1,2.2l0.4,1.8l-12.1,3.7L50.4,65l2.4,11.8l4,2.6l3.1-2.8l0.9,1.8l-3.6,4.2
		l-14.5,6.6l-9.2,2.2l-0.3,3.2l21.4-6.1l8.8-2.4l8.1-9.8l9-5.9L75.9,78l5.1,0.7l8.6-3.7l1.5,6.1l5.9,1.3l6.1,5.9l0.4,4.4l-0.9,1.1
		l1.1,4.2h1.5l0.2-7h1.8l0.4,17.3l4.4-3.7l-3-17.9h-4.6l-5.1-6.3l24.9-41.6l-24.7-19l-27.6,5.3l-1.1,8.3l5.9,3.5l-2.2,5.7L66.8,36
		L66.8,36z"/>
	<path class="st0" d="M116.6,135.8l-0.9,3.5l-3.1-2h-1.5l-0.9,3.8l-10.9,24.1l2.9,21l3.6,1.8l0.7,5.7h7.3l7.1,5.3l14,1.3l1.5,7.1
		l2.2,1.5l3.1-3.1l2.4,1.1l2.2,10.2l3.8,2.4l3.1-5.7l9.5-6.8l6.2,2.9l5.3,0.4l0.2-3.3l11.1,0.2l2.2,2.4l0.4,5.5l-1.3,3.1l1.5,5.3
		h3.3l3.3-5.1l-1.3-2.4l-1.3-5.3l2-6l9.1-7.7l6.9-2l-0.9-6.4l9.5-10.2l9.5-1.5l-1.5-5.3l9.3-5.3v-7.1l-0.9-0.4l-3.3,1.1l-0.4,4.3
		l-11.1,0.1l-8.7,5.7l-13.6,4.4l-2.2-2.6l6.2-9.2l-3.1-2.9l-2.1-3.9l-4.3-3.4L188,152l-8.8-6L116.6,135.8L116.6,135.8z"/>
</g>
<g id="ca">
	<path class="st1" d="M165.6,28.1l0.2,3.5l-7.1,7.3l1.8,5.9l5.1-1.4l3-4.3l7.5-2.8l6.1-0.4l-4.7-5.1l-2.4,1.8l-1.8-0.6l-1-2.2
		l-2.2-2.2L165.6,28.1L165.6,28.1z"/>
	<path class="st1" d="M174.9,17.6l-1.6,2.8l7.7,2.8l2.8-4.1l1.2,2.8h2l3.7-4.1l-4.5-1.2l-1.8-1.4l-2.4,2.4L174.9,17.6L174.9,17.6z"
		/>
	<path class="st1" d="M188.4,23.1l-6.1,2.6v2l7.9,2.9l-1.8,2l1.2,2.6l4.9-2.2h4.1l2,3.1l3.4-3.3l-0.8-3.1l-2.8,1l-0.4-3.9l1.4-2.4
		H200l-2.2,1.4l-1,0.8l0.6,2.8l-1.6,1.2l-2.4-0.2l-0.6-3.5L188.4,23.1L188.4,23.1z"/>
	<path class="st1" d="M196.6,17l-0.6,2l3.7,1.8l2.8-1.6l-0.2-1.2L196.6,17L196.6,17z"/>
	<path class="st1" d="M199.5,13.7l-2.8,1l0.2,1.4l6.1-0.4l-0.2-1.4L199.5,13.7L199.5,13.7z"/>
	<path class="st1" d="M212.7,17l-0.4,1.4l-1,1.4v2l3.7-0.6l3.9,3.3h1.4v-3.3l-3.9-4.3L212.7,17L212.7,17z"/>
	<path class="st1" d="M222.8,21l1.6,1.8l-1.4,2.4l1,2.6l4.3-2.4v-1.8l-2.6-2.9L222.8,21L222.8,21z"/>
	<path class="st1" d="M228.6,16.5l0.2,3.1h5.3l1.4,1.2l-0.2,1.4l-4.7,0.6l3.4,4.5l4.5,0.8l6.3-2.8l-9.1-13.6l-2.8,1.8l0.2,2.4
		l-3.2-1.2L228.6,16.5L228.6,16.5z"/>
	<path class="st1" d="M182.4,38.7l-7.5,2l-4.3,3.7l0.4,4.1l7.9,2.4l-1.8,3.9l-5.7-3.5l-1.6,2.9l3.7,2.6l-0.2,4.1l5.7,1.6l6.9-0.4
		l1.2-2.2l5.1,5.7l3.6-1.2l0.6-3.9l2.6,1.8l0.4-3.9l-3.2-2l0.2-12.4l-2.8-2.2l-3,3.9L182.4,38.7L182.4,38.7z"/>
	<path class="st1" d="M206.6,47.3l-2.6-1.2l-1.4,1.8l2.8,4.3l0.2,4.1l5.9-3.5v-5.1l2.2-2.2l-2.2-1.6h-3.6L206.6,47.3L206.6,47.3z"/>
	<path class="st1" d="M219.2,45.5l-4.1,3.3l1,4.1h2.6l1.2-2.2l1.8,1.8l1.8-0.2l4.7-3.9L219.2,45.5L219.2,45.5z"/>
	<path class="st1" d="M218.8,39.1l-1,2l4.3,1.6l1.2-1.8L218.8,39.1L218.8,39.1z"/>
	<path class="st1" d="M216.3,31.6l-4.3,0.6l-2.6,2.4l4.7,0.2l-1.4,3.5l1,1.6l1.4-0.2l3.4-5.3L216.3,31.6L216.3,31.6z"/>
	<path class="st1" d="M223.8,30.2l-2.4,0.8l0.4,3.1l3.9,2.6l0.2,2l-1.2,1.2l0.6,3.9l15.3,4.9l4.2,1.3l4.1-3.5l-4.9-3.9l-4.5,1.2
		l-6.3-0.6l-2.4-2.4l-0.6-6.5l-3.9-2L223.8,30.2L223.8,30.2z"/>
	<path class="st1" d="M236.3,50.7l-4.3-0.4l-5.1,2L224,56l0.8,10.2l8.5,0.4l8.1,3.9l5.7,6.5l4.3-0.2l-1.2,6.1l-3.9,6.5l-4.3,2
		l-3.2-0.6l-1.6-1.4l-2.4,3.1l1,3.1l3.4,0.2l4.1-2l3.6,9l8.9,5.7l6.1-7.7l-5.1-8.3l3-3.3l4.1,6.9l7.5-6.5l-1.4-2.9l-5.1,1.6
		l-3.5-9.6l3.4-5.5l-6.7-7.1l-3.7,2.6l-3.6-7.7l-7.5,1l-2-9.2l-6.1,4.1l-0.6,5.1h-3.4l0.4-4.5L236.3,50.7L236.3,50.7z"/>
	<path class="st1" d="M238.9,32v1.8l-4.3,1l1.2,2l4.9,2l5.5,0.6l3.9,2.8L254,40l-2.8-2.8h3.6l2.2-2.4l5.3-0.8v-1.2l-3-2l0.4-2.2
		L268,30l12.2-4.7l-4.5-1.4l1.2-1.6h9.5l1.6-1.6L269,14l-4.5-1.6l-4.9,3.5l-5.5-4.5l-3-0.2l-0.6,3.7l-3.7-3.3l-4.3,1.4l0.8,2.2
		l6.5,1.4l-0.4,3.1l3.6,2.2l8.7-2.2l0.2,2.9l-7.1,3.3l-4.3-3.3l-3.9,0.4l3.9,5.5l-2,1l-3-2.6l-2.2,1.4l2,3.7h3.4l-0.8,3.5l-2.8-0.4
		l-3.6-3.7L238.9,32L238.9,32z"/>
	<path class="st1" d="M221.2,86.1l-3.8,4.7l-0.2,5.2l3.3-1.9h4l2.8,2.6l2.6-2.1L221.2,86.1L221.2,86.1z"/>
	<path class="st1" d="M267.2,146.9l-9.4,8.9l0.9,2.1l11.5,4.2l1.6-2.8l-0.9-4.7l-3.8,0.5l-2.1-2.3l3.5-3.5L267.2,146.9L267.2,146.9z
		"/>
	<path class="st1" d="M125,39.3l1.8,2.6l0.9,3.5l4.4,1.1l3.1-3.3l2.7,1.3l7.5,0.7l5.3-2.2l0.9,7.3h3.1v-3.1l3.1,0.2l7.8,9.1l5.1,3.1
		l-2.7,4.2l1.1,1.1l10,2l0.2,4.4l2.7,0.4l0.7-6.6l4.2-1.1l3.1,4.6l6.6,3.1l3.3,0.7l2.2-2.6l0.2-4.2l4-2.4l1.3,3.5l-3.6,6.2l0.4,3.1
		l2-3.1l4-3.5l0.2-4.6l-2.2-3.5l0.7-2.9l5.3-2.6l2.4,1.8l0.4,15.5l3.8-3.3l2.2,1.3l-3.1,5.3l4,0.9l5.8-8.8l4.9,5.1l-2,9.1l-4.9,2.6
		l-4.7-2.2l-8.4,1.8l0.9,2.9l-2.2,3.5l-6.9,1.5l-7.8,6l-6.9,9.1l-0.9,2.9l4.7,1.8l1.8,4.4l6.4,6.4l10.2,4.4l-2.2,10.2l-0.2,2.9
		l2.7,1.8l3.6-4.6l0.4-8.8l5.5-0.2l2.7-5.1l0.4-7.7l7.1-13.7l8.9,3.1l4.7,6.4l-2,6.4l3.6,2l8.6-5.7l2.4,15.7l8,9.5l0.2,4.9l-8.9,2.2
		l-4.2,4.4l-8.9-2l-4.4-0.2l-7.8,6l4.7-1.1l5.8-1.1l1.1,1.3l-1.5,4.9l0.2,4.4l2.7,1.8l2.7-0.7l1.3-2h1.8l-2.9,5.3l-5.5,0.2l-2.4,3.5
		h-3.1l-0.9-2.6l4.4-4.4l-5.3,1.8l-0.2-7.5l-1.5-0.9l-4.7,2v3.8h-10.6l-9.1,6.2l-12.2,4l-1.3-1.8l6.1-9.1l-3.5-3.3l-2.2-4.2
		l-4.5-3.4l-4.8-0.4l-8.7-6l-63.1-10.2l-1-4.2l-5.8-5.3V121l0.9-4l-0.4-2.2l-2.2-2.2l-0.4-3.5l5.8-4l-3.6-19l-4.9-0.2l-4.4-5.7
		L125,39.3L125,39.3z"/>
	<path class="st1" d="M103.2,109.4l-1.5,2.9l0.5,2l1,0.6l-0.2,0.8l-1.1,0.3l0.3,3l1.1,1.1l0.9-1l-1.1-2.9l0.7-2.3l1.7-2.2l-1.2-2
		L103.2,109.4L103.2,109.4z"/>
	<path class="st1" d="M108.3,126.6l-1.4,0.5l2.5,2.9l0.6,3.4l2.5,2.6l2.1-0.4v-3.5l-2.6-1.6L108.3,126.6L108.3,126.6z"/>
	<path class="st1" d="M245.2,54.2l-1.6,1.6L245,58l6.5,0.8l-4.1-4.3L245.2,54.2L245.2,54.2z"/>
</g>
<path id="gt" class="st0" d="M157.7,252.9l5.3,3.8l5.3-6.5l-0.9-1.4l-1.8-0.1v-3.8l-1.4-0.8l-4.1,1.2l1.6,3.6L157.7,252.9
	L157.7,252.9z"/>
<path id="hn" class="st0" d="M169.1,250.5l8.2-0.3l2.4,2.9l-1.5-0.3l-2.9,0.1l-3.8,3.6l-1.6,3.6l-1.1-0.6v-3.9l-2.4-1.6L169.1,250.5
	L169.1,250.5z"/>
<path id="sv" class="st0" d="M163.7,257.1l4.2,2.1l-0.1-3.3l-2.1-1.3L163.7,257.1L163.7,257.1z"/>
<path id="ni" class="st0" d="M178.1,253.4l1.9,0.4l0.1,3.9l-2.3,6.4l-6.1-0.6l-1.4-3.1l1.8-3.7l3.4-3.2L178.1,253.4L178.1,253.4z"/>
<path id="cr" class="st0" d="M177.8,264.7l1.2,2.4l1,1.3l-1.4,4l-2.6-1.8l-4.2-3.8v-2.5L177.8,264.7L177.8,264.7z"/>
<path id="pa" class="st0" d="M180.7,268.8l-1.3,4l4.3,1.1l2.7,0.5l0.5-3.1l2.9-1.4l2.5,1.3l1,1.6l1.2-0.1l1-2.9l-3.2-1.3l-2.4-1.3
	l-2.4,1.6l-2.9,1.4l-2.9-1.2L180.7,268.8L180.7,268.8z"/>
<path id="co" class="st0" d="M210.3,260.2l-1.8-0.2l-12.1,9.9l-1.3,3.5l-1.7,0.2l0.7,7.7l-4.2,10.2l4.6,3.8l5.9,0.4l4,5.9l5.9,0.2
	l-0.2,4.4h2.2l2.4-8l-2.2-2.7l0.6-5.1l4.6-0.4l-0.6-11.9l-10.3-3.3l-2.4-6.4L210.3,260.2L210.3,260.2z"/>
<path id="ve" class="st0" d="M207.4,265.6l0.4,2.3l2.9,0.9l0.7-4.2l3.1-3.1l3.1,3.5l7,1.9l5.9-1.2l4,4.9l3.1,1.9l-3.3,5l1.1,3.8
	l-1.9,2.3l-2,1.6l-4.3-2.1l-1,1v3l3.1,1.5l-2.3,2.5l-2.3,2.5l-3.1-0.2l-3.1-3.3l-0.6-12.5l-10.5-3.5l-1.9-5.5L207.4,265.6
	L207.4,265.6z"/>
<path id="gy" class="st0" d="M238.2,272.8l6.4,5.8l-2.6,2.9l-0.2,1.7l3.4,3.4l-0.1,3.3l-5.8,2.2l-3.5-4.7l0.7-5.6l-1.5-4.2
	L238.2,272.8L238.2,272.8z"/>
<path id="sr" class="st0" d="M245.4,279l1.8,1.6l2.8-1.7l2.6,0.1l-0.3,1l-1.1,2.2l-0.2,5.5l-5.1,2.1l0.2-3.5l-3.3-3l0.2-1.6
	L245.4,279L245.4,279z"/>
<path id="pe" class="st0" d="M184.6,303.9l-1.7,1.7l0.1,2.8l15.2,27.2l15.8,10l2.4-4l0.6-8.8l-1.3-5.5l-4.3-7.1l-2.5,0.8l-1.1,1.3
	l-5.1-5.7l1.3-6.8l5.9-3.8l-0.5-3.6l-6-0.2l-3.1-5.2l-1.7-0.6l0.1,3.1l-7.7,9.1l-5.8-1.4L184.6,303.9L184.6,303.9z"/>
<path id="bo" class="st0" d="M214.7,324.4l7.3-3.2l2.4,0.2l1.6,6.6l11.2,3.7l1.8,5.6l4.6,0.6l2,4.8l-1.4,4.4l-7.5,0.6l-2.8,7
	l-5.9-0.1l-1.8-0.3l-3.4,3.3l-1.7-0.2l-5.8-13.2l1.6-2.4l0.6-9.3l-1.4-5.6L214.7,324.4L214.7,324.4z"/>
<path id="py" class="st0" d="M244.2,347.9l2,2.1l-0.2,4.5l5.6-0.3l4.3,5.4l-0.3,4.8l-2.8,4.1l-5.6,0.2l-0.2-2.3l1.6-3.8l-5.5-3.4
	h-4.6l-3.5-3.7l2.5-7.1L244.2,347.9L244.2,347.9z"/>
<path id="uy" class="st0" d="M251.9,376.4l-1.8,1.9l0.8,10.4l5.7,1.6l7.3-7.2L251.9,376.4L251.9,376.4z"/>
<g id="ar">
	<path class="st0" d="M256.5,364.3l1.7,1.6l-6.6,9.6l-2.3,2.5l0.8,11l5.1,6.1l-4.3,7.3l-3.2,1.4H244l1,5.7l-5.8,2l1.4,4.8l-3.5,10.9
		l4.3,3.4l-2.3,5.6l-3.9,6.1l2.1,4.2l-5.1,0.8l-4.1-5l-0.7-15.7l-6.4-26.7l1.9-9.3l-4.1-11.9l2.8-15.5l2.5-3l-0.6-2.3l3.3-2.9
		l7.3,0.5l4.1,4.3l4.7,0.1l4.8,2.9l-1.4,3.3l0.3,3.3l6.8-0.3L256.5,364.3L256.5,364.3z"/>
	<path class="st0" d="M241.7,452.8l0.2,5l3.9-0.3l3.3-2.2l-5.6-1.1L241.7,452.8L241.7,452.8z"/>
</g>
<g id="cl">
	<path class="st0" d="M238.2,448.7l-3.8,8.3l6.6,0.7l0.1-5.5L238.2,448.7L238.2,448.7z"/>
	<path class="st0" d="M236.9,447.4l-2.9,3.1l-0.3,3.7l-5.5-3.1l-5.9-8.4l-1.7-3l2.4-3.1l-0.2-3.9l-2.8-1.1l-2.2-1.6l0.5-2.2l2.9-0.8
		l0.6-12.6l-4.5-2.5l-2.9-65.6l0.8-1.3l5.6,13h1.8l0.6,2.1l-2.4,2.9l-2.8,15.7l4,12.1l-1.8,9.2l6.5,27l0.7,15.8l4.7,5.3L236.9,447.4
		L236.9,447.4z"/>
	<path class="st0" d="M217.9,414.4l-1.1,1.7l0.6,3l1.1,0.1l0.6-3.8L217.9,414.4L217.9,414.4z"/>
</g>
<path id="br" class="st0" d="M264.3,382.5l5.6-10.6l0.2-8.9l10.4-6.6h5.8l4.6-7.6l0.8-14.7l-1.9-3.9l11-9.9l0.4-11l-14.9-7.2
	l-18.1-5.6l-8.5-0.8l2.3-4.8l-0.6-7.2l-1.9-0.6l-2.7,5.4l-1.4,1.8l-3.7-1.6l-12.5,4.3l-4.1-5.2l0.7-5.4l-3.9,3.9l-4.3-2.3l-0.4,0.6
	v1.9l3.7,2l-5.6,5.8h-3.5l-3.6-3.6l-4,0.1l-0.5,4.3l2.3,2.8l-2.7,8.7l-3.2,0.2L205,310l-1.2,6.3l4.4,4.7l0.8-0.9l3.1-0.8l2.7,4.4
	l7.6-3.2l2.9,0.2l2,7.1l10.8,3.4l1.9,5.7l4.6,0.5l2.2,5.4l-1.5,4.8l1.9,2.5l-0.3,3.7l5.2-0.5l4.8,5.9l-0.4,4.2l2.8,2.4l-6.8,10.1
	L264.3,382.5L264.3,382.5z"/>
<path id="bz" class="st0" d="M166.4,244.9v3.2h0.7l2.5-4.7h-1.7L166.4,244.9L166.4,244.9z"/>
<g id="cn">
	<path class="st1" d="M662.2,234.1l-2.1,0.6l-1.5,1.9l1.3,2.5l1.9,0.2l2.1-1.9l0.5-2.5L662.2,234.1L662.2,234.1z"/>
	<path class="st1" d="M582.3,146.1l-3.1,7.7l-4.2-0.2l-4.5,9.7l3.8,4.8l-7.8,10.7l-4-0.7l-2.7,3.3l0.7,2l3.1,0.2l1.6,3.6l3.1,0.7
		l9.6,12.1v6.2l4.7,2.9l5.1-0.9l6.5,3.8l7.8,2.2l3.8-0.4l4.3-0.4l8.9-5.8l2.9,0.4l1.1,2.6l2.5,0.7l3.4,4.9l-2.2,4.9l1.3,3.3l3.8,1.3
		l0.7,4l4.5,0.4l0.7-2l6.5-3.3l4,0.2l4.7,5.1l3.1-1.3l2,0.2l0.9,2.5l1.6,0.2l2.2-3.1l8.9-3.3l8.1-9.6l2.7-9.1l-0.2-6l-3.4-0.7l2-2.2
		l-0.4-3.6l-8.5-8.5v-4.2l2.5-3.1l2.5-1.1l0.2-2.5h-6.3L670,178l-2.9-0.7l-3.6-3.8l2.2-5.8l3.1-3.3l2.9,0.2l-0.5,5.4l1.6,1.3
		l3.8-3.8l1.3-0.2l-0.4-2.9l3.6-4.2l2.7,0.2l1.6-4.9l1.8-1l0.2-3.1l-1.8-1.8l-0.2-4.8l3.4-0.2l-0.2-12.4l-2.4,1.4l-0.9,3.2h-4
		l-11.6-6.5l-8.4-10l-8.5-0.1l-2.2,1.9l2.8,6.2l-1,5.9l-3.4,1.4l-1.9-0.1l-0.1,5.8l2,0.4l3.6-1.6l4.7,2.2v2.2l-3.4,0.2l-2.7,5.8
		l-2.5,0.2l-8.7,11.4l-9.2,4l-6.3,0.4l-4.2-2.9l-6,3.1l-6.5-2l-1.6-4.2l-11-0.7l-5.8-9.3h-2.5l-2-4.3L582.3,146.1z"/>
</g>
<path id="mn" class="st0" d="M585.3,146.2l5.2-6.8l6.2,2.8l4.2,1.1l5.2-4.7l-3.5-2.6l2.3-3.2l6.9,2.4l2.4,3.9l4.3,0.1l2.3-1.7
	l4.7-0.2l1,1.7l7.7,0.4l4.9-4.9l6.8,0.7l-0.4,6.7l3,0.7l3.6-1.6l3.9,1.9l-0.1,1l-2.8,0.1l-2.9,6l-2.3,0.2l-8.8,11.4l-9,3.9l-5.6,0.4
	l-4.7-3l-6,3.1l-5.9-1.8l-1.7-4.2l-11.1-0.8l-5.7-9.5l-2.8-0.2L585.3,146.2L585.3,146.2z"/>
<path id="kp" class="st0" d="M678.7,167.4l1.6,0.7l0.5,5.7l3.2,0.2l3.1-3.5l-1.1-0.9l0.1-3.8l2.8-3.4l-1.4-2.6l0.9-1.1l0.5-2.6
	l-1.6-0.7l-1.4,0.7l-1.7,5.2l-2.8-0.2l-3.2,3.7L678.7,167.4L678.7,167.4z"/>
<path id="kr" class="st0" d="M687.6,170.8l5.5,4.4l0.9,4.3l-0.2,2.3l-2.7,3l-2.3,0.1l-2.6-5.6l-1-2.7l1.1-0.8l-0.2-1.1l-1.3-0.6
	L687.6,170.8L687.6,170.8z"/>
<path id="kz" class="st0" d="M498.7,162.4l3.6-1.5l4.1-0.1l0.3,6.2h-2.4l-1.8,2.9l2.4,3.9l3.5,2l0.3,2.2l1.3-0.4l1.2-1.4l2,0.4l1,2
	h2.5V176l-1.5-4.5l-0.7-3.6l4.5-2l6,1l3.8,3.8l8.6-0.8l4.8,6.7l5.6,0.3l1.5-2.5l2-0.4l0.3-2.8l2.9-0.1l1.5,1.8l1.5-3.6l13.3,1.8
	l2.2-2.9l-3.8-4.6l5.1-10.9l4.1,0.3l2.8-6.7l-5.6-0.6l-3.2-3.1l-8.9,1l-11.5-11l-4,3.5l-12.3-5.5l-15,7.3l-0.4,5.2l3.5,4.1l-6.9,3.8
	l-8.9-0.2l-1.9-2.7l-7-0.4l-6.6,4.2l-0.1,5.7L498.7,162.4L498.7,162.4z"/>
<path id="tm" class="st0" d="M514,179.1l-0.6,2.3h-3.7v3.1l4,2.6l-1.2,3.5v1.6l1.6,0.3l2.2-2.9l4.9-1.1l10.5,3.9l0.1,2.9l5.9,0.5
	l6.6-6.8l-0.8-2.2l-4.4-1l-12.3-7.9l-0.6-2.9h-4.7l-2.1,3.8h-2.1L514,179.1L514,179.1z"/>
<path id="uz" class="st0" d="M545.3,189.2l2.7,0.1v-4.6l-2.6-1.5l4.4-5.5h1.8l1.8,2.1l4.7-1.8l-6.4-2.2l-0.2-1.3l-1.5,0.4l-1.5,2.6
	l-6.5-0.2l-4.8-6.7l-8.4,0.8l-4-3.9l-5.5-0.9l-4,1.6l2.3,7.6v2.6h1.7l2.1-3.9l5.5,0.1l0.8,3l11.8,7.8l4.6,1L545.3,189.2L545.3,189.2
	z"/>
<path id="tj" class="st0" d="M546.4,182.8l3.7-4.5h1.4l0.5,1l-1.7,1.2v1l1.1,0.8l5.3,0.3l1.7-0.7l0.8,0.2l0.5,1.7l3.2,0.3l1.6,3.3
	l-0.5,1l-0.6,0.1l-0.6-1.3l-1.4-0.1l-2.4,0.3l-0.2,2.2l-2.4-0.2l0.1-2.8l-1.7-1.6l-2.7,2.2l0.1,1.4l-2.3,0.8h-1.4l0.1-4.9
	L546.4,182.8L546.4,182.8z"/>
<path id="kg" class="st0" d="M552.3,171.7l-0.3,2.2l0.2,1.4l7.7,2.6l-6.8,2.7l-0.8-0.6l-1.5,0.9l0.1,0.5l0.8,0.4l4.8,0.1l2.4-0.7
	l3.1-3.9l3.9,0.7l4.7-6.4l-12.5-1.7l-1.7,4.2l-2.2-2.3L552.3,171.7L552.3,171.7z"/>
<path id="af" class="st0" d="M532.1,196.2l1.4,11l3.5,0.8l0.3,2l-2.5,2l4.7,3.8l9.1-3.3l0.7-3.9l5.8-3.6l2.2-8.2l1.6-1.8l-1.7-2.9
	l5.6-3.4l-0.7-1l-2.6,0.2l-0.2,2.3h-3.5l-0.1-3.1l-1.1-1.3l-1.9,1.7l0.1,1.5l-2.8,1.1l-5.2-0.3l-6.8,7L532.1,196.2L532.1,196.2z"/>
<path id="pk" class="st0" d="M540.1,216.2l2.3,3.4l-0.2,1.8l-3.1,1.2l-0.2,2.9h3.5l1.2-1h6.7l6.1,5.3l0.8-2.5h4.5l0.1-3.2l-4.6-4.4
	l1-2.4l4.7-0.3l6.4-13.2l-3.5-2.7l-1.3-4.6l8.6-0.8l-5.1-7.1l-2.7-0.7l-1.1,1.3l-0.8,0.1l-5.1,3.2l1.7,2.7l-1.9,2l-2.3,8.4l-5.7,3.6
	l-0.8,4L540.1,216.2L540.1,216.2z"/>
<path id="in" class="st1" d="M582.8,271.8l4.1-2l2.4-8.7l-0.1-10.6l13.9-14.8v-3.5l2.9-1.1V227l-3.1-5.9l1.8-3.2l3.9,3.5l4.9,0.2v2
	l-1.5,1.6l0.3,0.9l2.6,0.1l0.6,3h0.8l2-3.5l1-9.2l3.3-2.3l0.1-3.2l-1.3-2.5l-2.1-0.1l-8.2,5.3l0.5,3.4h-5.7l-2-2.5l-1.1,0.1l0.4,3.4
	l-12.4-0.9l-7.7-3.4l-0.4-4.2l-5.1-3.1l-0.1-6.5l-3.5-4l-8.1,0.8l0.9,3.5l4,3.2l-6.9,13.9l-4.6,0.3l-0.8,1.7l4.5,4.1l-0.2,4.2
	l-4.6-0.1l-0.5,2.1l3.8-0.2l0.1,1.6l-2.7,1.4l1.8,3.3l3.4,1.1l2.1-1.5l1-2.7l1.2-0.5l1.4,1.4l-0.4,3.5l-1,1.6l0.2,2.8L582.8,271.8
	L582.8,271.8z"/>
<path id="np" class="st0" d="M583,209.8l0.4,3.8l7.2,3.2l11.5,0.8l-0.4-2.8l-7.7-2.1l-6.5-3.8L583,209.8L583,209.8z"/>
<path id="bt" class="st0" d="M604.6,214.7l1.4,1.9h4.7l-0.5-2.6L604.6,214.7L604.6,214.7z"/>
<path id="bd" class="st0" d="M604.8,219.1l-1.2,2.1l3,5.7l0.1,4.4l0.6,1.2l3.6,0.1l2-1.9l1.5,0.9l0.3,2.7l1.2-0.7l0.1-3.4l-1-0.1
	l-0.6-2.9l-2.5-0.1l-0.6-1.6l1.5-2v-1h-4.4L604.8,219.1L604.8,219.1z"/>
<path id="mm" class="st0" d="M635,263.6l-2.5-3.9l1.8-2.5l-1.7-3.1l-1.6-0.3l-0.3-5.2l-2.4-4.6l-0.7,1.1l-1.6,2.7l-2,0.3l-1-1.3
	l-0.5-3.5l-1.5-2.8l-6.1-5.7l1.5-1l0.3-4.1l2.2-3.7l1-9.2l3.2-2.2l0.1-3.4l1.9,0.6l3,4.4l-2.3,4.8l1.5,3.8l3.8,1.5l0.7,4.1l5.1,0.8
	l-1.4,2.4l-6.4,2.5l-0.7,4.1l4.7,5.9l0.2,3.2l-1.1,1.1l0.1,1l3.5,5.1l0.1,5.3L635,263.6L635,263.6z"/>
<path id="th" class="st1" d="M635.5,234.4l2.9,3.7v4.5l1,0.5l4.6-2.2l0.9,0.3l5.5,6.2l-0.2,4.3l-1.8-0.3l-1.6-1l-1.2,0.1l-2.1,3.5
	l0.4,1.9l1.7,0.9l-0.1,2.1l-1.2,0.6l-4.1-2.8v-2.5l-1.7-0.1l-0.7,1.1l-0.4,11.1l2.6,4.8l4.7,4.5l-0.2,1.3l-2.5-0.1l-2.3-3.4h-2.4
	l-3-2.4l-0.9-2.5l1.3-2.1l0.4-1.9l1.4-2.5l-0.1-5.7l-3.4-4.9l-0.1-0.6l1.1-1.1l-0.3-3.9l-4.6-5.7l0.5-3.3L635.5,234.4L635.5,234.4z"
	/>
<path id="sg" class="st0" d="M648.2,290.1l0.7,0.4l1.6-0.1l-0.1-1.2l-1.3,0.2L648.2,290.1z"/>
<g id="my">
	<path class="st1" d="M666,289.3l2.7,3.1l10.3-3.5l2-7.8l4.6-0.3l4.2-3l-5.4-3.9l-1.2-2.2l-2.7,4.9l1,2.8l-1.6,2.4l-3.1-0.8
		l-7.5,5.4l0.2,3.1L666,289.3L666,289.3z"/>
	<path class="st1" d="M637.9,274l1.8,4l0.4,5.2l2.4,3.7l5.2,3.1l1-0.8l1.5-0.3L650,287l-1.9-4.6l-2.8-5.8l-0.2,1l-3.3-0.1l-2.4-3.4
		L637.9,274L637.9,274z"/>
</g>
<path id="kh" class="st0" d="M644.8,259.9l3.6,3.8l6.8-5l0.6-7.8l-3.5,2.4l-1.8-1l-2.4-0.3l-1.4-1H646l-1.8,2.9l0.3,1.4l1.8,1
	l-0.2,2.8L644.8,259.9L644.8,259.9z"/>
<path id="la" class="st0" d="M640.4,227.8l-2.2,1.1l-1.8,5.2l3,3.8l-0.5,4.2l0.5,0.2l5-2.4l6.7,7.4l-0.2,4.6l1.5,0.8l3.6-2.9
	l-0.3-2.3l-10.3-9.7l0.1-1.5l1.3-0.9l-0.9-2.5l-4.3-0.7L640.4,227.8L640.4,227.8z"/>
<path id="vn" class="st0" d="M649,264.3l1.1,1.6l0.2,1.9l2.8,0.3l3.4-4.5l3.2-0.9l1.7-4.6l-0.8-7.3l-3.3-4.5l-3.5-2.7l-4.4-7.5
	l3.2-5.2l-4.5-5.1l-3.6-0.2l-3.3,1.7l1,4.1l4.3,0.8l1.2,3.2l-1.5,1l0.1,0.8l10.2,9.9l0.4,2.9l-0.6,9.1L649,264.3L649,264.3z"/>
<path id="ge" class="st0" d="M479.7,176.1l2.9,3.8l3.6,1.7h2.2l3.8-1l1-1.5l-11.3-4.2L479.7,176.1L479.7,176.1z"/>
<path id="am" class="st0" d="M492.4,181.1l4.3,5.5l-1.3,1.5l-3-0.5l-3.8-3.3l0.2-2.2L492.4,181.1L492.4,181.1z"/>
<path id="az" class="st0" d="M493.9,179.2l-0.9,1.5l4.2,5.4l1.5-0.5l2.4,2.5l1-4.4l2.6,0.4l-0.1-1.1l-4.3-3.7l-0.8,2.2L493.9,179.2
	L493.9,179.2z"/>
<path id="ir" class="st0" d="M492.3,188.2l-1.1,1.1l0.1,1.8l1.4,1.9l4.8,5.2l-0.7,2.1H496l-0.4,2.1l2.7,3.4l2.5,0.2l5,6.9l2.8,0.2
	l2.2,1.6l0.1,3.1l8.7,5h3.2l2-1.7l2.5-0.1l1.5,3.3l9.4,1.3l0.3-3.4l3.1-1.1l0.1-1.2l-2.5-3.3l-5.5-4.4l2.9-2.6l-0.2-1.1l-3.6-0.6
	l-1.5-12.1l-0.2-2.8l-9.8-3.7l-4.3,1l-2.4,2.9l-2.2-0.1l-0.6,0.5l-4.8-0.3l-6.1-4.4l-2.3-2.4l-1,0.2l-1.9,2.1L492.3,188.2
	L492.3,188.2z"/>
<g id="ye">
	<path class="st0" d="M519.1,260.1l1.9,2.1l2.6-1.5l0.9-0.3l-1.2-1.1L521,260L519.1,260.1L519.1,260.1z"/>
	<path class="st0" d="M494.4,250.9l1.3,3.8v3.7l3.1,2.8l21.8-8.7l0.2-2.4l-3.5-6.2l-8.7,2.8l-5,4.9l-5.9-3.6L494.4,250.9
		L494.4,250.9z"/>
</g>
<path id="om" class="st0" d="M518,243.5l6.6-3.7l1.2-5.5l-1.4-0.8l0.6-5.9l1.3-0.7l1.3,2.1l8,4.1v2.3l-9.7,14.1l-4.5,0.1L518,243.5
	L518,243.5z"/>
<path id="ae" class="st0" d="M514.1,229.5l0.8,3.1l8.8,0.8l0.6-6.3l1.7-0.9l0.5-2.3l-2.8,0.8l-3.1,4.6L514.1,229.5L514.1,229.5z"/>
<path id="qa" class="st0" d="M512.9,224.3l-0.5,3.5l1.4,1l1.2-0.1l0.5-4.4l-1.1-0.8L512.9,224.3L512.9,224.3z"/>
<path id="kw" class="st0" d="M504.6,213.9l-2-1.1l-1.4,1.4l0.2,2.8l3.2,1.2L504.6,213.9L504.6,213.9z"/>
<path id="sa" class="st0" d="M505.2,219.2l6.2,8.6l2,1.6l0.9,3.9l9.6,0.7l1.1,0.6l-1.1,4.7l-6.3,3.7l-9.2,2.8l-4.9,4.8l-5.8-3.4
	l-3.5,3.1l-4.9-8l-3.4-1.5l-1.2-1.8v-4l-12.3-14.7l-0.5-2.6h3.5l4.3-3.7l0.2-1.8l-1.2-1.2l2.5-2l5.2,0.3l8.9,7.4l5.3-0.2l0.3,1.3
	L505.2,219.2L505.2,219.2z"/>
<path id="sy" class="st0" d="M471.9,198l-0.3,2.2l2.5,1l-0.1,6.2l2.5-0.1l2.5-1.9l0.9-0.2l5.7-4.5l1.1-6.5l-11.4,1.1l-1.2,2.6
	L471.9,198L471.9,198z"/>
<path id="iq" class="st0" d="M487.6,194.4l-1.4,6.8l-5.7,4.7l0.4,2.2l5.6,0.4l8.9,7.2l5-0.1l0.1-1.7l1.8-1.9l2.6,1.4l0.3-0.3l-5-6.5
	l-2.3-0.1l-3.1-4l0.6-2.9l1-0.1l0.3-1.3l-4.3-4.4L487.6,194.4L487.6,194.4z"/>
<path id="jo" class="st0" d="M473.8,208.3l-2.2,7.5v1.2h3.4l3.9-3.4l0.1-1.3l-1.6-1.6l2.8-2.3l-0.4-2.1l-0.8,0.2l-2.3,1.7
	L473.8,208.3L473.8,208.3z"/>
<path id="lb" class="st0" d="M471.4,200.9l0.1,1.7l-0.7,2.6l2.5,0.2l0.2-3.7L471.4,200.9L471.4,200.9z"/>
<path id="il" class="st0" d="M470.7,205.9l-1.4,4.4l1.8,5.3l2.1-7.7v-1.7L470.7,205.9L470.7,205.9z"/>
<path id="cy" class="st0" d="M468.8,198.7l1.1,0.8l-3.4,3.2l-1.6-0.1l-1.2-0.8l0.2-1.6l2.5-0.2L468.8,198.7L468.8,198.7z"/>
<g id="gb">
	<path class="st1" d="M382.1,127.6l-1.6,2.4l0.6,1h3.8v1.6l-1,1.3l0.7,3.4l2.1,4.1l1.6,3.7l2.6,1l1.1,2l-0.2,1.8l-1.6,1l-0.2,0.8
		l1.1,0.7l-1,1.3l-2.3,1l-4.4-0.5l-6.9,3.1l-2.3-1.1l6.5-3.7l-0.8-0.5l-3.4-0.3l2.1-3.1l0.3-2.6l2.8-0.3l-0.5-5l-3.3-0.2l-1-1.1
		l0.2-3.7l-2,0.2l2-6.5l3.6-2.6L382.1,127.6L382.1,127.6z"/>
	<path class="st1" d="M375.1,138.5l-2.9,0.3l-0.2,2.6l2,1.3l2.1-0.5l0.8-1.5L375.1,138.5L375.1,138.5z"/>
</g>
<path id="ie" class="st0" d="M376.1,143l-0.8,5.3l-7.2,2.6h-2.3l-1.6-1.1v-1l3.6-2.3l-1-2l0.2-2.8l3.1,0.2l1.4-3.3l-0.2,2.9l2.4,1.9
	L376.1,143L376.1,143z"/>
<path id="fi" class="st0" d="M436.2,99.3l1.8,0.8l1.1,2.1l-1.1,1.5l-5.7,6.2l-1,3.3l1.3,4.7l4.4,3.3l5.9-2.8l4.7-0.7l4.4-7l-3.3-7.6
	l-3.1-7.3l0.5-4.7l-2-0.3l-0.5-3.4l-2.6-4.2l-2.9,2l-1.1,4.6l-3.1-1.8l-4.3-1l-1,1.1l1.7,1.5l3-0.1l2.4,3.9L436.2,99.3L436.2,99.3z"
	/>
<g id="ru">
	<path class="st2" d="M733.7,112.6l-1.1,1.4l0.1,2.1l1-0.1l1.7-3L733.7,112.6L733.7,112.6z"/>
	<path class="st2" d="M770.7,30.3l-2.1,1.4l-0.5,1.7l1,1.1l2.2-0.7l2.2,0.7l1.2,0.4l-0.1-4.1L770.7,30.3L770.7,30.3z"/>
	<path class="st2" d="M472.9,30.6l1.5,0.6l-1.1,1.8v2.6L471,37h-2.4l-1.4-1.7l0.2-1.8l1.1-1.4h2.1L472.9,30.6L472.9,30.6z"/>
	<path class="st2" d="M478.7,28.9v1.8l1.5,1.2l2.1-0.1l1.8-1.7v-1.2h-1.7l-1.4,0.5l-1.1-1.2L478.7,28.9L478.7,28.9z"/>
	<path class="st2" d="M487.4,29.1l1.1,2.3l2.1,0.1l1.5-0.6l-0.8-2.1l-2-0.5L487.4,29.1L487.4,29.1z"/>
	<path class="st2" d="M496.2,26l-1.7-0.3l-1.5,1.5l0.8,1.4l0.5,2.1l2-1.5l0.5-1.7L496.2,26L496.2,26z"/>
	<path class="st2" d="M505.6,42.2l-0.5,2.1l-3.5,3.1l-7.5,1.7L488,59.2l-1.1,2.9l6.1,1.5l0.9-3.7l1.8-5.6l4.8-2.4l4-3.1l2.9-1.2h1.5
		v-4.1L505.6,42.2L505.6,42.2z"/>
	<path class="st2" d="M485.8,64.5l4.1,0.5l1.4,4.7l3.5,3.7l-1.2,2.4h-2.1l-2-2.3l-4.4-0.1l-1.8-2.4v-1.7l2.8-0.8L485.8,64.5
		L485.8,64.5z"/>
	<path class="st2" d="M550.6,12.5l-2-1.2h-2.3l-0.5,1.4l-2.4,1.4l-1.8,0.6l-0.3,1.8l4.3,0.3L550.6,12.5L550.6,12.5z"/>
	<path class="st2" d="M555.4,12.9l-1.1,2.3l-2.1-0.1l-3.4,2.4l-0.9,3.1h2.1l1.2-2l2.9,2.1l2.8-1.2l2-1.7l-0.8-2.6l-1.1-1.8
		L555.4,12.9L555.4,12.9z"/>
	<path class="st2" d="M559.9,14.6l1.1,4.3l1.7,4l1.8-3.2l3.5-0.8v-2.3l-2.3-1.7L559.9,14.6L559.9,14.6z"/>
	<path class="st2" d="M644.2,7.7l2.4,2l1.7-0.7l0.5-2.8l-3.5-2.4L643,5.3l-5.6,0.5v2.5l-5.9,0.1v4.1l6.9,5.1l1.8-1.3l-0.4-3.6
		l4.4-1.1l-0.9-1.7l-1.6-1.6L644.2,7.7L644.2,7.7z"/>
	<path class="st2" d="M650.7,5.4l1.6,3l6.2-0.7l1.7-2.2l-0.4-1.9l-1.7-0.7l-1.6,1.2l-4.6,1L650.7,5.4L650.7,5.4z"/>
	<path class="st2" d="M650.3,17l-3.1-0.8l-1.8,1.9l-0.8,2.6l4.2-0.4l3.2-1.6L650.3,17L650.3,17z"/>
	<path class="st2" d="M730.8-0.2L728.2-1l-3,1.1l-1.5,2.2l1.9,2.5l5-2.2l1-1.1L730.8-0.2L730.8-0.2z"/>
	<path class="st2" d="M731.7,117.8v3.7l1.2,0.4l0.9-1.4v-2.9L731.7,117.8L731.7,117.8z"/>
	<path class="st2" d="M696.8,104.3l-0.1,5.4l6.9,10.5l2.5,9.1l4.3,8.1l1.7,0.6l1.5-1.2l0.7-2l-6.2-6.7l0.2-3.5l1.4-0.6l0.3-2
		l-12.2-17L696.8,104.3L696.8,104.3z"/>
	<path class="st2" d="M745,87.5l-1.7,0.2l1,1.4l2.1,1.4l0.6-0.7L745,87.5L745,87.5z"/>
	<path class="st2" d="M748.3,88.5l0.3,1.4l2.6,0.8l0.3-1L748.3,88.5L748.3,88.5z"/>
	<path class="st2" d="M762.8,94l1.1,2l1.9-0.1l0.4-1.4L762.8,94L762.8,94z"/>
	<path class="st2" d="M781.5,97.1l1.5,2.7l1.1-1.2v-1.8L781.5,97.1L781.5,97.1z"/>
	<path class="st2" d="M714.1,60.6l1.6,5.3l3.1,0.9l3.1-4.9l-1.8-3.3l0.7-2.9h4.7l-1.1,2.3l0.4,8l-6.7,16.5l0.7,3.6l-0.2,6l12.5,18
		l2.5,0.7l0.2-14.7l2.5-2.2l-2.7-5.8l2.2-2.5l-4.9-6.5l-2.7,0.2l-0.9-10.7l6.9-1.8l0.4-3.1l3.6-0.9l2,1.8l2.5-9.8l4.2-7.1l3.4-1.8
		l2.9,0.2v-3.3l-4.7-0.9l-6.5-5.3l3.1-3.6l-2.7-6l2.2-2.2l2.7,3.6l6.7,2.5l7.4,0.7l0.9-3.1l-3.8-3.8l4.2-5.8l-9.6-3.3l-2.5,4.9
		l-3.1-4l-17.8-6L713,13.4l-2.5,1.3V16l3.6,1.8l-0.4,4.2l-6.5-2.7l-14.3,5.6l-2.5-5.1h-9.8l-4.5,4.7l-15.8-3.7l-14.5,2.9l-1.8,4.5
		l2.2,0.7l-0.2,3.3l-14.1,1.6l0.9,4.5l-13-2.2l3.1-5.8l-13.2-0.7l1.1,6l-4.2,2l-3.6-3.3l-14.5,2.5l-5.6,5.1l-0.2,3.1l-3.6,0.2
		l-0.4-3.6l11.4-9.8V25l-7.4-2l-9.6,3.1l-4-4h-1.8l-2.2,4.5l1.8,2l-12.8,6.9l-11,8.2l-6.7,9.1v3.8l7.2,2.9l-3.6,2.7l-7.6-2.7
		l-3.1,2.7l-4.7-5.3l-0.9,2l5.1,16l1.3,0.4l3.6-1.8l1.8,1.3v2.9l-3.4-1.3l-2,1.6l1.3,2.9l-1.1,7.6l-6.9,0.7l-0.4-2.5l4-2.5l0.9-6.7
		l-4.5-5.8l-1.6-10l-7.2-1.1l-0.7,3.6l1.3,1.8l-2.9,2.5l1.1,6.7L517,77l0.9,4.9l-4.3-2.7l-11-2l-1.3,3.6l-8.7,3.1l-1.3-2.2
		l-11.4,6.2l-0.2,4.2l-4.5,0.7l1.3-3.1v-3.1L472,85l-2.9,1.1l2.5,4.7l1.8,3.1v2.5l-3.4-0.7l-0.7-0.7l-3.4,3.6l1.8,3.1l-7.6-0.2
		l2.5,3.1l-0.7,1.3h-4l-2.9-2l-0.7-5.6l-4.7-1.8v-2.2l9.8,2l5.4,0.4l2.2-3.3l-2-3.6l-14.3-5.6l-4.9,1.2l-1.7,1.4l0.5,3.3l2.1,0.4
		l-0.5,5.2l6.5,15L448,118l-0.3,1.7l2.4,1.7l-2.1,1.4h-1.4l0.3,6.5l2,2.8v2.7l2.5,0.2l3.9,1.5l4.1,5.5v1.5l-1.3,2.2l3-0.2l3,0.8
		l4,5.6l9.9,0.9l-0.4,6.7l-3.4,2.9l0.7,1.1l-3.4,3.6l-0.9,3.3l2,2.9l6.5,2.2l2.7-1.6l17.3,6.5l0.7-1.8l-3.6-3.3v-4.2l-2.2-0.7
		l0.4-3.6l3.6-4.2l-6.4-4.7l0.4-6.6l6.9-4.5l8.1,0.4l1.3,2.5l8.3,0.4l6-3.3l-3.1-3.3l0.7-6.2l15.8-7.6l12,5.4l4-3.6l11.9,11.1
		l8.9-0.9l3.1,3.1l8.5,0.9l5.6-7.6l7.2,3.1l3.8,0.7l3.8-3.3l-3.4-2.2l2.9-4.5l8.3,2.7l1.8,3.6l3.6,0.2l2.2-1.6l6-0.2l0.7,1.6
		l6.9,0.4l4.7-4.9l9.6,1.1l2.9-1.1l0.9-5.3l-2.9-6.5l2.9-2.5h9.2l8.7,10.2l11.2,6.2h3.4l0.4-2.7l4-2.5l0.4,14.5l-3.6,0.2v3.6l2,2.5
		l-0.4,3.2l1.5,0.6l0.9-2.2l1.3,0.4l0.9,0.9l4-0.9l4-11.6l0.4-14.5l-5.1-11.6l-6.5-7.8l-3.1,0.4v2.5l-7.6-2.9l2.9-6.2l2.5-16.5
		l10.3-3.1l4.9-3.1h5.4l-1.4,1.8l1.3,2.2l4.7-4.9l2.7,0.2l-0.4-2.9l-4.3-0.9l2.9-10.5L714.1,60.6L714.1,60.6z"/>
	<path class="st2" d="M433.1,138.1l-1.3,2.4h4.8h1l-0.2-1.4l-0.7-0.9L433.1,138.1z"/>
</g>
<path id="lt" class="st0" d="M435.2,135l-2.2,0.4l0.2,2.1l3.5,0.3l1.3,1.1l0.3,1.8l1.1,1.5l3.2-0.1l3-3.8l-0.2-2.3l-5.7-0.9
	L435.2,135z"/>
<path id="lv" class="st0" d="M446.3,129.6l-6.5-1.1l-1.1,2.9l-1.9,0.6l-1-1.2l-1-1.8l-1.1,0.8L433,133v1.7l2.3-0.4l4.8,0.1l5.8,1.1
	l2.3-0.7l-0.1-2.6L446.3,129.6L446.3,129.6z"/>
<g id="ee">
	<path class="st0" d="M446,122.8l-5-0.2l-3.2,1.9v1.4l2,1.9l6.4,1.1L446,122.8L446,122.8z"/>
	<path class="st0" d="M435.3,123.6L434,124l1.3,0.2l0.6,0.7l0.7-0.9l-0.7-1.2L435.3,123.6z"/>
	<path class="st0" d="M435.9,125.4l-1.9,0.8l-0.7,1.1l0.7,0.7l2.4-0.9l1.2-0.8L435.9,125.4z"/>
</g>
<path id="by" class="st0" d="M439.7,142.8l1.3,2.2l-0.5,1.7l0.1,1.4l0.5,1.6l2.8-1.5l3.4,0.1l2.4,1h6.1l1.8-4.2l1.1-1.6v-1.1
	l-3.8-5.3l-3.4-1.3l-2.8-0.3l-2.4,0.8l0.1,2.4l-3.3,4.2L439.7,142.8L439.7,142.8z"/>
<path id="pl" class="st1" d="M440.4,150.2l0.8,1.4l0.2,1.5l-0.6,1.4l-1.4,2.7l-1.2,0.5l-1.6-0.7h-0.9l-2.3,0.8l-2.6-0.8l-4.2-2.9
	l-4.1-2.2l-1.6-2.5l-0.3-5.9l3.2-2.8l4.2-1.4l1.4-0.1l0.3,1l1.8,0.7l4.9,0.1h1.5l2.5,3.8l-0.6,1.5l0.3,1.8L440.4,150.2L440.4,150.2z
	"/>
<g id="pt">
	<path class="st0" d="M474.9,353.8l-1,1.2l1,1.2l1.4-0.7L474.9,353.8L474.9,353.8z"/>
	<path class="st0" d="M443.2,336.8L442,338l2.2,1.2l0.2-1.7L443.2,336.8L443.2,336.8z"/>
	<path class="st0" d="M449.7,336.1l-1.4,1l1.2,1l1.9-0.5L449.7,336.1L449.7,336.1z"/>
	<path class="st0" d="M450.7,339.4l-0.7,1.9l1,1.2l1.2-1L450.7,339.4L450.7,339.4z"/>
	<path class="st0" d="M456.5,343.3l-0.5,1.2l0.7,0.7l1.9-1.2L456.5,343.3L456.5,343.3z"/>
	<path class="st0" d="M495.2,331.7l-0.6,7.6l-1.6,1.4l0.2,0.9l1.1,1.8l-0.7,2.2l1.2,0.4l2.8-0.3l-0.2-2.2l1.8-10.2l-0.4-1.4
		L495.2,331.7L495.2,331.7z"/>
</g>
<path id="nl" class="st0" d="M403.4,144.5l-4,2l0.9,0.8l0.1,2l-0.9-0.2l-0.9-1.5l-2.3,3.5l3.5,0.7l1.3,1.3h0.7l0.5-3l2.2-0.9
	L403.4,144.5L403.4,144.5z"/>
<path id="be" class="st0" d="M395.9,151.8l-0.6,1.4l6.1,4l0.4,0.1l0.4-1.1l0.9-0.6l-1.4-1.5h-0.9l-1.3-1.5L395.9,151.8L395.9,151.8z
	"/>
<path id="lu" class="st0" d="M402.5,157.7l0.8,0.7l0.9,0.1l0.2-1.8l-0.3-1l-1.3,0.6L402.5,157.7z"/>
<path id="de" class="st1" d="M404.3,144.1l3.2-0.5v-2.2l2.7-0.4l1.5,1.5l1.5,0.2l2.4-1l2.1,0.6l1.9,1.6l0.3,6.1l1.9,2.5l-2.5,0.3
	l-4.1,2.6l0.3,0.9l3.7,3.4l-0.3,1.7l-3.4,1.7l-3.2-0.1l-0.8,1.6H410l-0.8-1.7l-2.8-0.7l-0.1-2.8l-1.4-0.8l0.1-1.9l-0.4-1.4l-2-1.9
	l0.4-2.9l2.2-1L404.3,144.1L404.3,144.1z"/>
<g id="dk">
	<path class="st0" d="M409.5,129.7l-3.7,4l-0.1,2.6l1.7,4.3l2.6-0.5l-0.3-3.5l1.8-2V133l-1.3-3.3H409.5L409.5,129.7z"/>
	<path class="st0" d="M411.4,137.1l-1.1,0.2v1.6l1.2,0.9l1-0.3l-0.3-1.5L411.4,137.1z"/>
	<path class="st0" d="M414.8,135.6l-1,0.2l-1.1,1l0.5,2l1.3,0.5l-1.4,0.5l-0.3,0.7h2.1l0.6-1.1l-0.8-0.4l0.3-1l0.9-1.2l-0.3-1.1
		L414.8,135.6z"/>
</g>
<g id="se">
	<path class="st0" d="M428.1,88.5l1.7,1.6h3.3l1.8,3.4l0.5,5.8l-4.4,3.1v3.1l-3.1,4.2l-1.8,0.2l-2.4,4.1l0.2,3.9l4.2,3.1l-0.3,1.8
		l-1.6,2.4l-2.4,2.1l0.2,7l-3.8,1.3l-1.3,2.8h-1.8l-1-4.9l-4.1-6.2l3.4-5.6l0.2-13.7l2.3-1.3l0.6-7.8l6.6-9.3L428.1,88.5L428.1,88.5
		z"/>
	<path class="st0" d="M428.8,128.6l-1.9,1.5l0.9,2.2l1.7-1.6L428.8,128.6L428.8,128.6z"/>
</g>
<path id="ch" class="st0" d="M405.9,163.1l-3.9,4.1l0.1,0.4l1.6-0.5l1.4,2l2.4-0.8l1.7,1.3l0.7-0.4l2.1-3.2l-0.5-0.5l-2-0.1l-1-2
	L405.9,163.1L405.9,163.1z"/>
<path id="cz" class="st0" d="M419.8,159.1h2.6h1.3l2.1,1.5l3.9-3.2l-3.8-2.7l-3.8-1.8l-2.6,0.5l-3.5,2.2L419.8,159.1L419.8,159.1z"
	/>
<path id="sk" class="st0" d="M426.4,161.1l0.6,0.5l0.1,0.9l6.8-0.1l5-2.1l-0.1-2.2l-1,0.4l-1.4-0.7h-0.8l-2.2,0.9l-3-0.7
	L426.4,161.1L426.4,161.1z"/>
<path id="at" class="st0" d="M412.9,163.7l-0.6,1.2l0.5,0.8l2.1-0.4h1.8l1.9,1.6l4.1-0.7l3-1.8l0.8-1.2l-0.1-1.5l-2.7-2h-3.6l-0.3,2
	l-3.8,1.8L412.9,163.7L412.9,163.7z"/>
<path id="hu" class="st0" d="M427.2,163.3l-1,1.6l0.1,2.4l1.6,0.8l5.1,0.1l7.1-5.9V161l-0.8-0.4l-5.1,2.3L427.2,163.3L427.2,163.3z"
	/>
<path id="si" class="st0" d="M425.5,165.4l-2.3,1.3l-4.2,0.9l0.8,2.4h3l2.7-2.3V165.4L425.5,165.4z"/>
<path id="hr" class="st0" d="M426.2,168.1l-3.1,2.6h-3.2l-0.4,2.2l1.5,0.4l0.7-1.1l1.1,1l0.9,3.2l6.3,2.9l0.6-0.7l-6.4-6.5l0.6-1.2
	l6.1-0.2l0.6-1.9l-4,0.1L426.2,168.1L426.2,168.1z"/>
<path id="ba" class="st0" d="M425.5,171.5l-0.3,0.5l6,6.1l2.2-3.2l-0.1-1.3l-1.9-2.3L425.5,171.5L425.5,171.5z"/>
<g id="it">
	<path class="st1" d="M410.2,184.2l-2.4,1.2l0.3,4.5l1.9,0.3l1.4-1.3v-4.3L410.2,184.2L410.2,184.2z"/>
	<path class="st1" d="M405.4,169.7l-0.6,1.4l0.2,1.5l2.1,2.5l3.3-0.1l7.4,8.5l4.6,1.3l2.7,2.5l0.6,5.8l1.5-0.8l1.3-3.2l-0.3-2.3
		l2.2-0.2l0.3-1.3l-6.1-2.9l-5.8-5.6l-2.3-3.4l-0.6-3.2l2.9-0.7l-0.8-2.1l-1.7-1.4l-1.6-0.1l-2.2,0.6l-2,2.8l-1.2,0.8l-1.9-1.2
		L405.4,169.7L405.4,169.7z"/>
	<path class="st1" d="M423.4,192.7l-1.3-0.7l-4.4,0.7l0.2,1.2l4,2l0.6,0.6l1,0.1L423.4,192.7L423.4,192.7z"/>
</g>
<path id="mt" class="st0" d="M423.6,199.2l-1.5,0.3l0.1,1.6l1.3,0.4l0.6-0.5L423.6,199.2L423.6,199.2z"/>
<path id="ua" class="st0" d="M444.1,148.8l-2.6,1.4l0.6,2.7l-2.4,5v2.2l1.1,0.7l7.2,0.4l2-1.6l2.2,0.7l3.1,4.1l-2.3,4l2.7,0.8l3.5-4
	l2,0.4l1.9,1.3l-1.6,2.1l2.2,3.4h2.4l1.2-2.3l2.5-0.5l0.1-1.9l-4.7-0.7l0.1-2h4.5l4.9-3.9l2.2-1.9l0.4-5.9l-9.6-0.9l-3.9-5.5
	l-2.7-0.9l-3.3,0.1l-1.5,3.6l-6.8,0.1l-2.2-1L444.1,148.8L444.1,148.8z"/>
<path id="md" class="st0" d="M448.7,161.6l2.8,4.2l-0.2,2.4h1l2.3-3.9l-2.8-3.4l-1.6-0.7L448.7,161.6L448.7,161.6z"/>
<path id="ro" class="st0" d="M441.1,161.5l-0.2,1.3l-5.2,4.2l4.3,6.2l2.8,1.9h5l1.6-1.4l2.2-0.3l1.6,1l2.9-3.3l-0.6-1.6l-2.9-0.7
	l-2-0.1l0.1-2.8l-2.7-4.2L441.1,161.5L441.1,161.5z"/>
<path id="me" class="st0" d="M432.7,177.2l-1.3,1.8l0.4,1.1l1.5,0.3l1.2-1.6L432.7,177.2z"/>
<path id="rs" class="st0" d="M435.1,167.6l-1.8,1.4h-0.9l-0.6,1.9l2.2,2.5l0.1,2l-0.9,1.3l3.2,3.3l3.4-1l-0.3-4.8L435.1,167.6
	L435.1,167.6z"/>
<path id="bg" class="st0" d="M440.4,174.5l0.1,4.4l1.5,3.1l5.6,0.1l2.5-1.8l2.5-1l-0.6-2.8l0.6-1.5l-1.3-0.7l-1.7,0.1l-1.4,1.4h-5.7
	L440.4,174.5L440.4,174.5z"/>
<path id="al" class="st0" d="M433.7,181v4.1l1.2,2.2l0.8-0.1l1.5-2.6l-0.8-1.2l-0.3-2.9l-1.1-1L433.7,181L433.7,181z"/>
<path id="mk" class="st0" d="M440,179.4l-3,1l0.1,2.5l0.7,0.9l3.6-1.6L440,179.4L440,179.4z"/>
<path id="tr" class="st1" d="M456.6,182.5l-2.4-1.5l-1.3-1l-2.2,0.9l0,0l-1.5,3.8l2.3-0.5l1.6-1.2l3.5,1l-2,1.9l-5.3-0.3l-2,2.1v1
	l1.3,1v1.1l-0.5,1.4l0.5,1.1l1.7-0.8l1.7,1.8l-0.4,1.2l-0.6,0.8l0.9,1l4.6,0.9l3.2-1.4v-2l1.6,0.3l3.8,2.2l4.1-0.6l1.8-1.7l1.1,0.4
	v1.9h1.6l1.4-2.6l11.9-1.3l5.2-0.6l-1.4-1.8v-2.4l1-1.2l-3.8-3l0.2-2.6h-2.1l-3.5-1.7l0,0l-2,2.1l-7.3-0.2l-4.4-2.6l-4.2,0.4
	l-4.7,2.8L456.6,182.5z"/>
<g id="gr">
	<path class="st0" d="M436.1,187.9l-0.1,1.2l4.1,2l2,0.7l-1,1.1l-2.3,0.2l-0.3,1l0.8,1.8l2.6,1.4l1.1,0.1l0.1-3l1.7-2l-4.6-5.4
		l0.6-1.8h1.1l1.6,1.3l1-0.5l0.3-1.8l3.8,0.5l1.2-3.3l-2,1.4l-5.9-0.1l-3.8,2L436.1,187.9L436.1,187.9z"/>
	<path class="st0" d="M445.1,199.3h1.4l0.6,0.9h2.1l1.4-0.5l0.5,0.6l-0.9,1.2l-4.1,0.1l-0.7-1l-0.8-0.5L445.1,199.3L445.1,199.3z"/>
</g>
<path class="st3" d="M389.6,249.7l-1.6,0.9l0.7,0.7L389.6,249.7L389.6,249.7z"/>
<path class="st3" d="M384.2,249.8l-1.9,0.5l1,1.4h1.4L384.2,249.8L384.2,249.8z"/>
<path class="st3" d="M379.6,248.4l-1.2,1.2l1.7,1.4l1-2.2L379.6,248.4L379.6,248.4z"/>
<path class="st3" d="M430.1,217.5l-1.4,0.5l0.3,1.3h2l0.9-0.9L430.1,217.5L430.1,217.5z"/>
<path class="st1" d="M383.2,175.8h-11.3l-2.3-0.9l-1.1,0.1l-1.3,2.4l0.5,2.5l4.3,0.4l0.6,1.6l-1.9,9.3l0.1,1.7l3.1,1.4l3.5,0.2
	l7.1-1.5l3.5-3.8l0.1-3.9l6.1-4.9l0.3-2.1l-5.6-0.1L383.2,175.8L383.2,175.8z"/>
<path class="st3" d="M383,234.4l-1,1.2l1,1.2l1.4-0.7L383,234.4L383,234.4z"/>
<path class="st3" d="M351.4,217.4l-1.2,1.2l2.2,1.2l0.2-1.7L351.4,217.4L351.4,217.4z"/>
<path class="st3" d="M357.9,216.7l-1.4,1l1.2,1l1.9-0.5L357.9,216.7L357.9,216.7z"/>
<path class="st3" d="M358.9,220l-0.7,1.9l1,1.2l1.2-1L358.9,220L358.9,220z"/>
<path class="st3" d="M364.7,223.9l-0.5,1.2l0.7,0.7l1.9-1.2L364.7,223.9L364.7,223.9z"/>
<path class="st0" d="M367.6,180.4L367,188l-1.6,1.4l0.2,0.9l1.1,1.8l-0.7,2.2l1.2,0.4l2.8-0.3l-0.2-2.2l1.8-10.2l-0.4-1.4
	L367.6,180.4L367.6,180.4z"/>
<path class="st1" d="M395.3,153.3l-2,0.5l-3.9,4.2l-1.2,0.1l-1.6-1.1l-1,0.2l-0.8,2.4l-5.7,0.2l0.2,1.3l3.9,2.6l4.6,3.6l-0.1,4.3
	l-2.4,4.2l5.3,2.5l5.4,0.2l1.7-1.9l3.4,0.1l0.9,0.9l3.4-0.2l1.7-2.2l-2.2-2.6l-0.2-1.6l0.5-1.8l-1.1-1.6l-1.9,0.5l-0.4-1.5l4.2-4.5
	v-2.7l-2.4-0.8l-1.5-1L395.3,153.3L395.3,153.3z"/>
<path id="ma_1_" class="st0" d="M384.8,200.6h-10.3l-2,4.4l-4.6,2.2l-3.8,10.2l-7.5,4.4l-10.5,17.1l10.3-0.2l0.4-5h2.6v-6.8h9.1
	l0.2-8.8l8.7-2l3.6-5.8l5.6-0.2L384.8,200.6L384.8,200.6z"/>
</svg>
